<svg width="56" height="64" viewBox="0 0 56 64" fill="none" xmlns="http://www.w3.org/2000/svg">
<path fill-rule="evenodd" clip-rule="evenodd" d="M19.467 2.13333C19.467 1.56754 19.6917 1.02492 20.0918 0.624839C20.4919 0.224761 21.0345 0 21.6003 0L34.4003 0C34.9661 0 35.5087 0.224761 35.9088 0.624839C36.3089 1.02492 36.5336 1.56754 36.5336 2.13333C36.5336 2.69913 36.3089 3.24175 35.9088 3.64183C35.5087 4.04191 34.9661 4.26667 34.4003 4.26667H30.1336V9.04533C34.6858 9.39341 39.0766 10.8844 42.8995 13.3803C42.9876 13.2646 43.0816 13.1535 43.1811 13.0475L47.4478 8.7808C47.6954 8.53314 47.9894 8.33669 48.313 8.20266C48.6366 8.06863 48.9834 7.99965 49.3336 7.99965C49.6839 7.99965 50.0307 8.06863 50.3543 8.20266C50.6778 8.33669 50.9719 8.53314 51.2195 8.7808C51.4672 9.02846 51.6636 9.32246 51.7976 9.64604C51.9317 9.96962 52.0007 10.3164 52.0007 10.6667C52.0007 11.0169 51.9317 11.3637 51.7976 11.6873C51.6636 12.0109 51.4672 12.3049 51.2195 12.5525L47.0595 16.7125C51.5281 21.0692 54.3695 26.8251 55.1106 33.0219C55.8517 39.2186 54.4478 45.4823 51.1326 50.7698C47.8174 56.0574 42.7911 60.0499 36.8904 62.0824C30.9898 64.115 24.5709 64.0649 18.7026 61.9407C12.8344 59.8165 7.87083 55.7462 4.63846 50.4076C1.40608 45.069 0.0999383 38.7842 0.937514 32.5998C1.77509 26.4153 4.70584 20.7044 9.24177 16.4179C13.7777 12.1313 19.6451 9.52791 25.867 9.04107V4.26667H21.6003C21.0345 4.26667 20.4919 4.04191 20.0918 3.64183C19.6917 3.24175 19.467 2.69913 19.467 2.13333ZM4.96031 36.2667C4.96031 30.1561 7.38773 24.2958 11.7086 19.9749C16.0294 15.6541 21.8897 13.2267 28.0003 13.2267C34.1109 13.2267 39.9712 15.6541 44.292 19.9749C48.6129 24.2958 51.0403 30.1561 51.0403 36.2667C51.0403 42.3773 48.6129 48.2376 44.292 52.5584C39.9712 56.8792 34.1109 59.3067 28.0003 59.3067C21.8897 59.3067 16.0294 56.8792 11.7086 52.5584C7.38773 48.2376 4.96031 42.3773 4.96031 36.2667ZM28.0003 36.2667V17.4933C24.9129 17.493 21.873 18.2541 19.1499 19.7092C16.4269 21.1644 14.1048 23.2687 12.3893 25.8357C10.6738 28.4027 9.61791 31.3532 9.31515 34.4257C9.01239 37.4983 9.47211 40.5981 10.6536 43.4506C11.835 46.3031 13.7018 48.8201 16.0885 50.7787C18.4751 52.7374 21.308 54.0772 24.3361 54.6794C27.3643 55.2816 30.4942 55.1277 33.4487 54.2313C36.4032 53.3349 39.0909 51.7236 41.2739 49.5403L28.0003 36.2667Z" fill="white"/>
</svg>
