<svg width="147" height="147" viewBox="0 0 147 147" fill="none" xmlns="http://www.w3.org/2000/svg">
<path d="M23.0703 18.3398V128.379H32.2403V91.6995H123.94V18.3398H23.0703ZM32.2403 27.5098H45.9952V41.2647H59.7501V27.5098H73.5051V41.2647H87.26V27.5098H101.015V41.2647H114.77V55.0197H101.015V68.7746H114.77V82.5295H101.015V68.7746H87.26V82.5295H73.5051V68.7746H59.7501V82.5295H45.9952V68.7746H32.2403V55.0197H45.9952V41.2647H32.2403V27.5098ZM45.9952 55.0197V68.7746H59.7501V55.0197H45.9952ZM59.7501 55.0197H73.5051V41.2647H59.7501V55.0197ZM73.5051 55.0197V68.7746H87.26V55.0197H73.5051ZM87.26 55.0197H101.015V41.2647H87.26V55.0197Z" fill="white"/>
</svg>
