<svg width="48" height="48" viewBox="0 0 48 48" fill="none" xmlns="http://www.w3.org/2000/svg">
<path d="M24 24C21.8 24 19.9167 23.2167 18.35 21.65C16.7833 20.0833 16 18.2 16 16C16 13.8 16.7833 11.9167 18.35 10.35C19.9167 8.78333 21.8 8 24 8C26.2 8 28.0833 8.78333 29.65 10.35C31.2167 11.9167 32 13.8 32 16C32 18.2 31.2167 20.0833 29.65 21.65C28.0833 23.2167 26.2 24 24 24ZM8 40V34.4C8 33.2667 8.292 32.2253 8.876 31.276C9.46 30.3267 10.2347 29.6013 11.2 29.1C13.2667 28.0667 15.3667 27.292 17.5 26.776C19.6333 26.26 21.8 26.0013 24 26C26.2 25.9987 28.3667 26.2573 30.5 26.776C32.6333 27.2947 34.7333 28.0693 36.8 29.1C37.7667 29.6 38.542 30.3253 39.126 31.276C39.71 32.2267 40.0013 33.268 40 34.4V40H8ZM12 36H36V34.4C36 34.0333 35.9087 33.7 35.726 33.4C35.5433 33.1 35.3013 32.8667 35 32.7C33.2 31.8 31.3833 31.1253 29.55 30.676C27.7167 30.2267 25.8667 30.0013 24 30C22.1333 29.9987 20.2833 30.224 18.45 30.676C16.6167 31.128 14.8 31.8027 13 32.7C12.7 32.8667 12.458 33.1 12.274 33.4C12.09 33.7 11.9987 34.0333 12 34.4V36ZM24 20C25.1 20 26.042 19.6087 26.826 18.826C27.61 18.0433 28.0013 17.1013 28 16C27.9987 14.8987 27.6073 13.9573 26.826 13.176C26.0447 12.3947 25.1027 12.0027 24 12C22.8973 11.9973 21.956 12.3893 21.176 13.176C20.396 13.9627 20.004 14.904 20 16C19.996 17.096 20.388 18.038 21.176 18.826C21.964 19.614 22.9053 20.0053 24 20Z" fill="#A00000"/>
</svg>
