<svg width="76" height="60" viewBox="0 0 76 60" fill="none" xmlns="http://www.w3.org/2000/svg">
<path d="M38 28.9795V31.0212M38 13.667V15.7087M38 44.292V46.3337M66.5833 58.5837C68.7493 58.5837 70.8265 57.7232 72.358 56.1917C73.8896 54.6602 74.75 52.5829 74.75 50.417V38.167C72.5841 38.167 70.5068 37.3066 68.9753 35.775C67.4437 34.2435 66.5833 32.1663 66.5833 30.0003C66.5833 27.8344 67.4437 25.7572 68.9753 24.2256C70.5068 22.6941 72.5841 21.8337 74.75 21.8337V9.58366C74.75 7.41772 73.8896 5.3405 72.358 3.80895C70.8265 2.27741 68.7493 1.41699 66.5833 1.41699H9.41667C7.25073 1.41699 5.17351 2.27741 3.64196 3.80895C2.11041 5.3405 1.25 7.41772 1.25 9.58366V21.8337C3.41593 21.8337 5.49316 22.6941 7.02471 24.2256C8.55625 25.7572 9.41667 27.8344 9.41667 30.0003C9.41667 32.1663 8.55625 34.2435 7.02471 35.775C5.49316 37.3066 3.41593 38.167 1.25 38.167V50.417C1.25 52.5829 2.11041 54.6602 3.64196 56.1917C5.17351 57.7232 7.25073 58.5837 9.41667 58.5837H66.5833Z" stroke="#B70000" stroke-width="2.5" stroke-linecap="round" stroke-linejoin="round"/>
</svg>
