<svg width="64" height="63" viewBox="0 0 64 63" fill="none" xmlns="http://www.w3.org/2000/svg">
<rect width="63.421" height="62.0571" rx="7.50141" fill="#0B0000"/>
<rect x="0.51146" y="0.51146" width="62.3981" height="61.0342" rx="6.98995" stroke="#CB0404" stroke-opacity="0.75" stroke-width="1.02292"/>
<path d="M31.346 30.311C30.3068 30.311 29.3102 29.8982 28.5754 29.1634C27.8406 28.4286 27.4278 27.432 27.4278 26.3928C27.4278 25.3537 27.8406 24.3571 28.5754 23.6222C29.3102 22.8874 30.3068 22.4746 31.346 22.4746C32.3851 22.4746 33.3817 22.8874 34.1165 23.6222C34.8513 24.3571 35.2642 25.3537 35.2642 26.3928C35.2642 26.9074 35.1628 27.4169 34.9659 27.8923C34.769 28.3676 34.4804 28.7996 34.1165 29.1634C33.7527 29.5273 33.3208 29.8159 32.8454 30.0128C32.37 30.2097 31.8605 30.311 31.346 30.311ZM31.346 15.4219C28.4363 15.4219 25.6458 16.5777 23.5883 18.6352C21.5309 20.6926 20.375 23.4832 20.375 26.3928C20.375 34.621 31.346 46.7675 31.346 46.7675C31.346 46.7675 42.3169 34.621 42.3169 26.3928C42.3169 23.4832 41.161 20.6926 39.1036 18.6352C37.0461 16.5777 34.2556 15.4219 31.346 15.4219Z" fill="white"/>
</svg>
