<svg width="64" height="62" viewBox="0 0 64 62" fill="none" xmlns="http://www.w3.org/2000/svg">
<rect y="0.607422" width="63.421" height="61.3751" rx="7.50141" fill="#0B0000"/>
<rect x="0.51146" y="1.11888" width="62.3981" height="60.3522" rx="6.98995" stroke="#CB0404" stroke-opacity="0.75" stroke-width="1.02292"/>
<g clip-path="url(#clip0_953_919)">
<path d="M47.8029 16.0103L38.3909 16.0103V13.6676C38.3909 13.0182 37.8649 12.4922 37.2155 12.4922C36.566 12.4922 36.04 13.0182 36.04 13.6676V16.0098H26.6363V13.6676C26.6363 13.0182 26.1103 12.4922 25.4609 12.4922C24.8114 12.4922 24.2854 13.0182 24.2854 13.6676V16.0098H14.89C13.5917 16.0098 12.5391 17.0624 12.5391 18.3607V47.7472C12.5391 49.0454 13.5917 50.0981 14.89 50.0981H47.8029C49.1011 50.0981 50.1538 49.0454 50.1538 47.7472V18.3607C50.1538 17.0629 49.1011 16.0103 47.8029 16.0103ZM47.8029 47.7472H14.89V18.3607H24.2854V19.5449C24.2854 20.1943 24.8114 20.7204 25.4609 20.7204C26.1103 20.7204 26.6363 20.1943 26.6363 19.5449V18.3613H36.04V19.5455C36.04 20.195 36.566 20.721 37.2155 20.721C37.8649 20.721 38.3909 20.195 38.3909 19.5455V18.3613H47.8029V47.7472ZM39.5746 31.2913H41.9256C42.5744 31.2913 43.101 30.7647 43.101 30.1158V27.7649C43.101 27.116 42.5744 26.5894 41.9256 26.5894H39.5746C38.9258 26.5894 38.3992 27.116 38.3992 27.7649V30.1158C38.3992 30.7647 38.9258 31.2913 39.5746 31.2913ZM39.5746 40.6944H41.9256C42.5744 40.6944 43.101 40.1683 43.101 39.5189V37.168C43.101 36.5191 42.5744 35.9925 41.9256 35.9925H39.5746C38.9258 35.9925 38.3992 36.5191 38.3992 37.168V39.5189C38.3992 40.1689 38.9258 40.6944 39.5746 40.6944ZM32.5219 35.9925H30.171C29.5221 35.9925 28.9955 36.5191 28.9955 37.168V39.5189C28.9955 40.1683 29.5221 40.6944 30.171 40.6944H32.5219C33.1707 40.6944 33.6973 40.1683 33.6973 39.5189V37.168C33.6973 36.5197 33.1707 35.9925 32.5219 35.9925ZM32.5219 26.5894H30.171C29.5221 26.5894 28.9955 27.116 28.9955 27.7649V30.1158C28.9955 30.7647 29.5221 31.2913 30.171 31.2913H32.5219C33.1707 31.2913 33.6973 30.7647 33.6973 30.1158V27.7649C33.6973 27.1155 33.1707 26.5894 32.5219 26.5894ZM23.1182 26.5894H20.7673C20.1184 26.5894 19.5918 27.116 19.5918 27.7649V30.1158C19.5918 30.7647 20.1184 31.2913 20.7673 31.2913H23.1182C23.7671 31.2913 24.2937 30.7647 24.2937 30.1158V27.7649C24.2937 27.1155 23.7671 26.5894 23.1182 26.5894ZM23.1182 35.9925H20.7673C20.1184 35.9925 19.5918 36.5191 19.5918 37.168V39.5189C19.5918 40.1683 20.1184 40.6944 20.7673 40.6944H23.1182C23.7671 40.6944 24.2937 40.1683 24.2937 39.5189V37.168C24.2937 36.5197 23.7671 35.9925 23.1182 35.9925Z" fill="white"/>
</g>
<defs>
<clipPath id="clip0_953_919">
<rect width="37.6147" height="37.6147" fill="white" transform="translate(12.5391 12.4873)"/>
</clipPath>
</defs>
</svg>
