<svg width="64" height="63" viewBox="0 0 64 63" fill="none" xmlns="http://www.w3.org/2000/svg">
<rect width="63.421" height="62.0571" rx="7.50141" fill="#0B0000"/>
<rect x="0.51146" y="0.51146" width="62.3981" height="61.0342" rx="6.98995" stroke="#CB0404" stroke-opacity="0.75" stroke-width="1.02292"/>
<path d="M47.02 30.8754C47.0674 28.5747 46.6075 26.2917 45.6731 24.1888C44.7387 22.0858 43.3527 20.2144 41.6135 18.7075C39.8743 17.2006 37.8246 16.0952 35.61 15.4698C33.3955 14.8444 31.0703 14.7143 28.7998 15.0888C26.5293 15.4634 24.3691 16.3333 22.4727 17.6368C20.5763 18.9403 18.9902 20.6454 17.827 22.6311C16.6639 24.6167 15.9523 26.8341 15.7428 29.1257C15.5333 31.4174 15.831 33.7271 16.6148 35.8907C16.9282 36.6743 17.8686 37.6147 18.6522 37.9281L39.3403 45.9213C40.124 46.2347 41.2211 45.9213 41.848 45.4511L45.9229 41.3762C46.5498 40.7492 47.02 39.4954 47.02 38.7118V30.8754Z" fill="white" stroke="black" stroke-width="1.56728" stroke-linecap="round" stroke-linejoin="round"/>
<path d="M46.7076 39.9663L30.2511 33.6972C29.5519 33.4402 28.9639 32.9359 28.5919 32.2742C28.2199 31.6124 28.0879 30.8362 28.2196 30.0836C28.3513 29.331 28.7381 28.6511 29.311 28.1648C29.884 27.6784 30.6059 27.4174 31.3482 27.428H46.7076" fill="white"/>
<path d="M46.7076 39.9663L30.2511 33.6972C29.5519 33.4402 28.9639 32.9359 28.5919 32.2742C28.2199 31.6124 28.0879 30.8362 28.2196 30.0836C28.3513 29.331 28.7381 28.6511 29.311 28.1648C29.884 27.6784 30.6059 27.4174 31.3482 27.428H46.7076" stroke="black" stroke-width="1.56728" stroke-linecap="round" stroke-linejoin="round"/>
</svg>
