<svg width="54" height="54" viewBox="0 0 54 54" fill="none" xmlns="http://www.w3.org/2000/svg">
<circle cx="27" cy="27" r="27" fill="#D9D9D9"/>
<path d="M21.0502 12.834H32.9502C37.4835 12.834 41.1668 16.5173 41.1668 21.0507V32.9507C41.1668 35.1298 40.3011 37.2198 38.7602 38.7607C37.2193 40.3016 35.1294 41.1673 32.9502 41.1673H21.0502C16.5168 41.1673 12.8335 37.484 12.8335 32.9507V21.0507C12.8335 18.8715 13.6992 16.7815 15.2401 15.2406C16.781 13.6997 18.871 12.834 21.0502 12.834ZM20.7668 15.6673C19.4142 15.6673 18.117 16.2046 17.1606 17.1611C16.2041 18.1175 15.6668 19.4147 15.6668 20.7673V33.234C15.6668 36.0532 17.9477 38.334 20.7668 38.334H33.2335C34.5861 38.334 35.8833 37.7967 36.8397 36.8402C37.7962 35.8838 38.3335 34.5866 38.3335 33.234V20.7673C38.3335 17.9482 36.0527 15.6673 33.2335 15.6673H20.7668ZM34.4377 17.7923C34.9073 17.7923 35.3577 17.9789 35.6898 18.311C36.0219 18.6431 36.2085 19.0935 36.2085 19.5632C36.2085 20.0328 36.0219 20.4832 35.6898 20.8153C35.3577 21.1474 34.9073 21.334 34.4377 21.334C33.968 21.334 33.5176 21.1474 33.1855 20.8153C32.8534 20.4832 32.6668 20.0328 32.6668 19.5632C32.6668 19.0935 32.8534 18.6431 33.1855 18.311C33.5176 17.9789 33.968 17.7923 34.4377 17.7923ZM27.0002 19.9173C28.8788 19.9173 30.6805 20.6636 32.0088 21.992C33.3372 23.3204 34.0835 25.122 34.0835 27.0007C34.0835 28.8793 33.3372 30.6809 32.0088 32.0093C30.6805 33.3377 28.8788 34.084 27.0002 34.084C25.1215 34.084 23.3199 33.3377 21.9915 32.0093C20.6631 30.6809 19.9168 28.8793 19.9168 27.0007C19.9168 25.122 20.6631 23.3204 21.9915 21.992C23.3199 20.6636 25.1215 19.9173 27.0002 19.9173ZM27.0002 22.7507C25.873 22.7507 24.792 23.1984 23.995 23.9954C23.1979 24.7925 22.7502 25.8735 22.7502 27.0007C22.7502 28.1278 23.1979 29.2088 23.995 30.0059C24.792 30.8029 25.873 31.2507 27.0002 31.2507C28.1273 31.2507 29.2083 30.8029 30.0054 30.0059C30.8024 29.2088 31.2502 28.1278 31.2502 27.0007C31.2502 25.8735 30.8024 24.7925 30.0054 23.9954C29.2083 23.1984 28.1273 22.7507 27.0002 22.7507Z" fill="black"/>
</svg>
