<svg width="16" height="17" viewBox="0 0 16 17" fill="none" xmlns="http://www.w3.org/2000/svg">
<path d="M5.14178 2.04785H10.6084C12.691 2.04785 14.383 3.73991 14.383 5.82244V11.2891C14.383 12.2902 13.9853 13.2503 13.2775 13.9581C12.5696 14.666 11.6095 15.0637 10.6084 15.0637H5.14178C3.05925 15.0637 1.36719 13.3716 1.36719 11.2891V5.82244C1.36719 4.82136 1.76487 3.86128 2.47274 3.1534C3.18061 2.44553 4.14069 2.04785 5.14178 2.04785ZM5.01162 3.34943C4.39026 3.34943 3.79434 3.59627 3.35497 4.03564C2.91561 4.47501 2.66877 5.07092 2.66877 5.69228V11.4192C2.66877 12.7143 3.71654 13.7621 5.01162 13.7621H10.7386C11.3599 13.7621 11.9559 13.5153 12.3952 13.0759C12.8346 12.6365 13.0814 12.0406 13.0814 11.4192V5.69228C13.0814 4.39721 12.0337 3.34943 10.7386 3.34943H5.01162ZM11.2918 4.32562C11.5075 4.32562 11.7144 4.41133 11.867 4.56389C12.0195 4.71645 12.1052 4.92336 12.1052 5.13911C12.1052 5.35486 12.0195 5.56178 11.867 5.71433C11.7144 5.86689 11.5075 5.9526 11.2918 5.9526C11.076 5.9526 10.8691 5.86689 10.7165 5.71433C10.564 5.56178 10.4783 5.35486 10.4783 5.13911C10.4783 4.92336 10.564 4.71645 10.7165 4.56389C10.8691 4.41133 11.076 4.32562 11.2918 4.32562ZM7.8751 5.30181C8.7381 5.30181 9.56576 5.64464 10.176 6.25487C10.7862 6.86511 11.1291 7.69276 11.1291 8.55577C11.1291 9.41877 10.7862 10.2464 10.176 10.8567C9.56576 11.4669 8.7381 11.8097 7.8751 11.8097C7.0121 11.8097 6.18444 11.4669 5.57421 10.8567C4.96397 10.2464 4.62114 9.41877 4.62114 8.55577C4.62114 7.69276 4.96397 6.86511 5.57421 6.25487C6.18444 5.64464 7.0121 5.30181 7.8751 5.30181ZM7.8751 6.60339C7.3573 6.60339 6.86071 6.80909 6.49456 7.17523C6.12842 7.54137 5.92273 8.03796 5.92273 8.55577C5.92273 9.07357 6.12842 9.57016 6.49456 9.9363C6.86071 10.3024 7.3573 10.5081 7.8751 10.5081C8.3929 10.5081 8.8895 10.3024 9.25564 9.9363C9.62178 9.57016 9.82748 9.07357 9.82748 8.55577C9.82748 8.03796 9.62178 7.54137 9.25564 7.17523C8.8895 6.80909 8.3929 6.60339 7.8751 6.60339Z" fill="white"/>
</svg>
