<svg width="48" height="48" viewBox="0 0 48 48" fill="none" xmlns="http://www.w3.org/2000/svg">
<path d="M10 18C10 14.287 11.475 10.726 14.1005 8.1005C16.726 5.475 20.287 4 24 4C27.713 4 31.274 5.475 33.8995 8.1005C36.525 10.726 38 14.287 38 18V30C38 31.8385 37.6379 33.659 36.9343 35.3576C36.2307 37.0561 35.1995 38.5995 33.8995 39.8995C32.5995 41.1995 31.0561 42.2307 29.3576 42.9343C27.659 43.6379 25.8385 44 24 44C22.1615 44 20.341 43.6379 18.6424 42.9343C16.9439 42.2307 15.4005 41.1995 14.1005 39.8995C12.8005 38.5995 11.7693 37.0561 11.0657 35.3576C10.3621 33.659 10 31.8385 10 30V18Z" stroke="white" stroke-width="3"/>
<path d="M21 17C21 16.2044 21.3161 15.4413 21.8787 14.8787C22.4413 14.3161 23.2044 14 24 14C24.7956 14 25.5587 14.3161 26.1213 14.8787C26.6839 15.4413 27 16.2044 27 17V21C27 21.7956 26.6839 22.5587 26.1213 23.1213C25.5587 23.6839 24.7956 24 24 24C23.2044 24 22.4413 23.6839 21.8787 23.1213C21.3161 22.5587 21 21.7956 21 21V17Z" stroke="white" stroke-width="3"/>
<path d="M24 4V14" stroke="white" stroke-width="3" stroke-linecap="round"/>
</svg>
