<svg width="74" height="74" viewBox="0 0 74 74" fill="none" xmlns="http://www.w3.org/2000/svg">
<path d="M8.41699 1.5H65.583C67.4174 1.5 69.1775 2.22826 70.4746 3.52539C71.7717 4.82252 72.5 6.58258 72.5 8.41699V65.583C72.5 67.4174 71.7717 69.1775 70.4746 70.4746C69.1775 71.7717 67.4174 72.5 65.583 72.5H8.41699C6.58258 72.5 4.82252 71.7717 3.52539 70.4746C2.22826 69.1775 1.5 67.4174 1.5 65.583V8.41699C1.5 6.58258 2.22826 4.82252 3.52539 3.52539C4.82252 2.22826 6.58258 1.5 8.41699 1.5ZM35.8486 12.0137L29.5264 26.999L13.25 28.4043L10.2988 28.6592L12.54 30.5957L24.8721 41.249L21.1641 57.1328L20.4912 60.0176L23.0273 58.4873L37 50.0557L50.9727 58.4873L53.5068 60.0166L52.8359 57.1328L49.1279 41.208L61.46 30.5547L63.7012 28.6182L60.75 28.3643L44.4727 26.958L38.1514 12.0127L36.998 9.28809L35.8486 12.0137Z" stroke="#B70000" stroke-width="2.5"/>
</svg>
