<svg width="124" height="125" viewBox="0 0 124 125" fill="none" xmlns="http://www.w3.org/2000/svg">
<path d="M62 62.3594C67.3648 62.3594 72.6092 60.7685 77.0698 57.788C81.5305 54.8075 85.0072 50.5711 87.0602 45.6147C89.1133 40.6582 89.6504 35.2043 88.6038 29.9426C87.5572 24.6808 84.9738 19.8476 81.1803 16.0541C77.3868 12.2606 72.5536 9.67721 67.2918 8.63059C62.0301 7.58396 56.5762 8.12113 51.6197 10.1742C46.6633 12.2272 42.4269 15.7039 39.4464 20.1645C36.4659 24.6252 34.875 29.8696 34.875 35.2344C34.875 42.4284 37.7328 49.3277 42.8197 54.4147C47.9067 59.5016 54.806 62.3594 62 62.3594ZM62 70.1094C45.1873 70.1094 11.625 80.4944 11.625 101.109V116.609H112.375V101.109C112.375 80.4944 78.8127 70.1094 62 70.1094Z" fill="white"/>
</svg>
