<svg width="54" height="44" viewBox="0 0 54 44" fill="none" xmlns="http://www.w3.org/2000/svg">
<path d="M22.8663 31.3337C23.9775 32.4448 25.3775 32.9674 27.0663 32.9017C28.7552 32.8359 29.9775 32.2243 30.733 31.067L45.6663 8.66699L23.2663 23.6003C22.1108 24.4003 21.4779 25.611 21.3677 27.2323C21.2575 28.8537 21.757 30.2208 22.8663 31.3337ZM8.59967 43.3337C7.6219 43.3337 6.72234 43.1221 5.90101 42.699C5.07967 42.2759 4.42367 41.643 3.93301 40.8003C2.77745 38.7114 1.88856 36.5452 1.26634 34.3017C0.644119 32.0581 0.333008 29.7354 0.333008 27.3337C0.333008 23.6448 1.03345 20.1781 2.43434 16.9337C3.83523 13.6892 5.73479 10.867 8.13301 8.46699C10.5312 6.06699 13.3535 4.16744 16.5997 2.76833C19.8459 1.36921 23.3126 0.66877 26.9997 0.666992C30.6441 0.666992 34.0663 1.35588 37.2663 2.73366C40.4663 4.11144 43.2663 5.98966 45.6663 8.36833C48.0663 10.747 49.9775 13.5248 51.3997 16.7017C52.8219 19.8785 53.5552 23.2892 53.5997 26.9337C53.6441 29.3781 53.3668 31.7674 52.7677 34.1017C52.1686 36.4359 51.2459 38.6688 49.9997 40.8003C49.5108 41.6448 48.8557 42.2785 48.0343 42.7017C47.213 43.1248 46.3117 43.3354 45.3303 43.3337H8.59967Z" fill="white"/>
</svg>
