<svg width="44" height="45" viewBox="0 0 44 45" fill="none" xmlns="http://www.w3.org/2000/svg">
<circle cx="22" cy="22.6016" r="22" fill="#D9D9D9"/>
<mask id="mask0_1259_871" style="mask-type:alpha" maskUnits="userSpaceOnUse" x="2" y="3" width="40" height="39">
<circle cx="22" cy="22.6016" r="19.25" fill="#D9D9D9"/>
</mask>
<g mask="url(#mask0_1259_871)">
<path d="M-11 39.3486C-11 41.3685 -10.2274 43.3058 -8.85212 44.7341C-7.47685 46.1625 -5.61159 46.9649 -3.66667 46.9649H47.6667C49.6116 46.9649 51.4768 46.1625 52.8521 44.7341C54.2274 43.3058 55 41.3685 55 39.3486V29.8281H-11V39.3486Z" fill="#138808"/>
<path d="M55 14.5977V5.07728C55 3.0573 54.2274 1.12005 52.8521 -0.308287C51.4768 -1.73663 49.6116 -2.53906 47.6667 -2.53906H-3.66667C-5.61159 -2.53906 -7.47685 -1.73663 -8.85212 -0.308287C-10.2274 1.12005 -11 3.0573 -11 5.07728L-11 14.5977H55Z" fill="#FF9933"/>
<path d="M-11 13.9609H55V30.4637H-11V13.9609Z" fill="#F7F7F7"/>
<path d="M21.9993 29.8303C26.0494 29.8303 29.3327 26.4204 29.3327 22.214C29.3327 18.0076 26.0494 14.5977 21.9993 14.5977C17.9493 14.5977 14.666 18.0076 14.666 22.214C14.666 26.4204 17.9493 29.8303 21.9993 29.8303Z" fill="#000080"/>
<path d="M22 28.6377C25.4173 28.6377 28.1875 25.7606 28.1875 22.2114C28.1875 18.6623 25.4173 15.7852 22 15.7852C18.5827 15.7852 15.8125 18.6623 15.8125 22.2114C15.8125 25.7606 18.5827 28.6377 22 28.6377Z" fill="#F7F7F7"/>
<path d="M22.1848 19.8302L22.0014 21.0678L21.8181 19.8302L22.0014 16.1172L22.1848 19.8302ZM20.4834 16.3247L21.2314 19.9596L21.7173 21.1059L21.5853 19.8625L20.4834 16.3247ZM19.0681 16.934L20.6961 20.2433L21.4514 21.2201L21.0151 20.0529L19.0681 16.934ZM17.8526 17.9013L20.2506 20.6622L21.2241 21.4029L20.5109 20.3919L17.8526 17.9013ZM16.9213 19.1637L19.9243 21.1859L21.0481 21.639L20.1076 20.8546L16.9213 19.1637ZM16.3346 20.6337L19.7409 21.778L20.9381 21.9151L19.8344 21.4105L16.3346 20.6337ZM16.1348 22.2103L19.7098 22.4007L20.9014 22.2103L19.7098 22.0199L16.1348 22.2103ZM16.3346 23.7868L19.8344 23.01L20.9381 22.5054L19.7409 22.6425L16.3346 23.7868ZM16.9213 25.2568L20.1076 23.566L21.0481 22.7815L19.9243 23.2347L16.9213 25.2568ZM17.8526 26.5192L20.5109 24.0287L21.2241 23.0176L20.2506 23.7583L17.8526 26.5192ZM19.0681 27.4865L21.0151 24.3676L21.4514 23.2004L20.6961 24.1772L19.0681 27.4865ZM20.4834 28.0958L21.5853 24.558L21.7173 23.3146L21.2314 24.4609L20.4834 28.0958ZM22.0014 28.3033L22.1848 24.5904L22.0014 23.3527L21.8181 24.5904L22.0014 28.3033ZM23.5194 28.0958L22.7714 24.4609L22.2856 23.3146L22.4176 24.558L23.5194 28.0958ZM24.9348 27.4865L23.3068 24.1772L22.5514 23.2004L22.9878 24.3676L24.9348 27.4865ZM26.1503 26.5192L23.7523 23.7583L22.7788 23.0176L23.4919 24.0287L26.1503 26.5192ZM27.0816 25.2568L24.0786 23.2347L22.9548 22.7815L23.8953 23.566L27.0816 25.2568ZM27.6683 23.7868L24.2619 22.6425L23.0648 22.5054L24.1684 23.01L27.6683 23.7868ZM27.8681 22.2103L24.2931 22.0199L23.1014 22.2103L24.2931 22.4007L27.8681 22.2103ZM27.6683 20.6337L24.1684 21.4105L23.0648 21.9151L24.2619 21.778L27.6683 20.6337ZM27.0816 19.1637L23.8953 20.8546L22.9548 21.639L24.0786 21.1859L27.0816 19.1637ZM26.1503 17.9013L23.4919 20.3919L22.7788 21.4029L23.7523 20.6622L26.1503 17.9013ZM24.9348 16.934L22.9878 20.0529L22.5514 21.2201L23.3068 20.2433L24.9348 16.934ZM23.5194 16.3247L22.4176 19.8625L22.2856 21.1059L22.7714 19.9596L23.5194 16.3247Z" fill="#6666B3"/>
<path d="M21.1909 16.2304C21.3934 16.2304 21.5576 16.0599 21.5576 15.8496C21.5576 15.6392 21.3934 15.4688 21.1909 15.4688C20.9884 15.4688 20.8242 15.6392 20.8242 15.8496C20.8242 16.0599 20.9884 16.2304 21.1909 16.2304Z" fill="#000080"/>
<path d="M19.6342 16.664C19.8367 16.664 20.0009 16.4935 20.0009 16.2832C20.0009 16.0728 19.8367 15.9023 19.6342 15.9023C19.4317 15.9023 19.2676 16.0728 19.2676 16.2832C19.2676 16.4935 19.4317 16.664 19.6342 16.664Z" fill="#000080"/>
<path d="M18.2378 17.4999C18.4403 17.4999 18.6044 17.3294 18.6044 17.1191C18.6044 16.9088 18.4403 16.7383 18.2378 16.7383C18.0353 16.7383 17.8711 16.9088 17.8711 17.1191C17.8711 17.3294 18.0353 17.4999 18.2378 17.4999Z" fill="#000080"/>
<path d="M17.0971 18.6835C17.2996 18.6835 17.4638 18.513 17.4638 18.3027C17.4638 18.0924 17.2996 17.9219 17.0971 17.9219C16.8946 17.9219 16.7305 18.0924 16.7305 18.3027C16.7305 18.513 16.8946 18.6835 17.0971 18.6835Z" fill="#000080"/>
<path d="M16.2905 20.1366C16.493 20.1366 16.6572 19.9661 16.6572 19.7558C16.6572 19.5455 16.493 19.375 16.2905 19.375C16.088 19.375 15.9238 19.5455 15.9238 19.7558C15.9238 19.9661 16.088 20.1366 16.2905 20.1366Z" fill="#000080"/>
<path d="M15.8745 21.7577C16.077 21.7577 16.2411 21.5872 16.2411 21.3769C16.2411 21.1666 16.077 20.9961 15.8745 20.9961C15.672 20.9961 15.5078 21.1666 15.5078 21.3769C15.5078 21.5872 15.672 21.7577 15.8745 21.7577Z" fill="#000080"/>
<path d="M15.8745 23.4296C16.077 23.4296 16.2411 23.2591 16.2411 23.0488C16.2411 22.8385 16.077 22.668 15.8745 22.668C15.672 22.668 15.5078 22.8385 15.5078 23.0488C15.5078 23.2591 15.672 23.4296 15.8745 23.4296Z" fill="#000080"/>
<path d="M16.2905 25.0507C16.493 25.0507 16.6572 24.8802 16.6572 24.6699C16.6572 24.4596 16.493 24.2891 16.2905 24.2891C16.088 24.2891 15.9238 24.4596 15.9238 24.6699C15.9238 24.8802 16.088 25.0507 16.2905 25.0507Z" fill="#000080"/>
<path d="M17.0971 26.4999C17.2996 26.4999 17.4638 26.3294 17.4638 26.1191C17.4638 25.9088 17.2996 25.7383 17.0971 25.7383C16.8946 25.7383 16.7305 25.9088 16.7305 26.1191C16.7305 26.3294 16.8946 26.4999 17.0971 26.4999Z" fill="#000080"/>
<path d="M18.2378 27.6874C18.4403 27.6874 18.6044 27.5169 18.6044 27.3066C18.6044 27.0963 18.4403 26.9258 18.2378 26.9258C18.0353 26.9258 17.8711 27.0963 17.8711 27.3066C17.8711 27.5169 18.0353 27.6874 18.2378 27.6874Z" fill="#000080"/>
<path d="M19.6342 28.5194C19.8367 28.5194 20.0009 28.349 20.0009 28.1386C20.0009 27.9283 19.8367 27.7578 19.6342 27.7578C19.4317 27.7578 19.2676 27.9283 19.2676 28.1386C19.2676 28.349 19.4317 28.5194 19.6342 28.5194Z" fill="#000080"/>
<path d="M21.1909 28.953C21.3934 28.953 21.5576 28.7825 21.5576 28.5722C21.5576 28.3619 21.3934 28.1914 21.1909 28.1914C20.9884 28.1914 20.8242 28.3619 20.8242 28.5722C20.8242 28.7825 20.9884 28.953 21.1909 28.953Z" fill="#000080"/>
<path d="M22.8061 28.953C23.0086 28.953 23.1728 28.7825 23.1728 28.5722C23.1728 28.3619 23.0086 28.1914 22.8061 28.1914C22.6036 28.1914 22.4395 28.3619 22.4395 28.5722C22.4395 28.7825 22.6036 28.953 22.8061 28.953Z" fill="#000080"/>
<path d="M24.3628 28.5194C24.5653 28.5194 24.7294 28.349 24.7294 28.1386C24.7294 27.9283 24.5653 27.7578 24.3628 27.7578C24.1603 27.7578 23.9961 27.9283 23.9961 28.1386C23.9961 28.349 24.1603 28.5194 24.3628 28.5194Z" fill="#000080"/>
<path d="M25.7612 27.6874C25.9637 27.6874 26.1279 27.5169 26.1279 27.3066C26.1279 27.0963 25.9637 26.9258 25.7612 26.9258C25.5587 26.9258 25.3945 27.0963 25.3945 27.3066C25.3945 27.5169 25.5587 27.6874 25.7612 27.6874Z" fill="#000080"/>
<path d="M26.8999 26.4999C27.1024 26.4999 27.2665 26.3294 27.2665 26.1191C27.2665 25.9088 27.1024 25.7383 26.8999 25.7383C26.6974 25.7383 26.5332 25.9088 26.5332 26.1191C26.5332 26.3294 26.6974 26.4999 26.8999 26.4999Z" fill="#000080"/>
<path d="M27.7065 25.0507C27.909 25.0507 28.0732 24.8802 28.0732 24.6699C28.0732 24.4596 27.909 24.2891 27.7065 24.2891C27.504 24.2891 27.3398 24.4596 27.3398 24.6699C27.3398 24.8802 27.504 25.0507 27.7065 25.0507Z" fill="#000080"/>
<path d="M28.1245 23.4296C28.327 23.4296 28.4911 23.2591 28.4911 23.0488C28.4911 22.8385 28.327 22.668 28.1245 22.668C27.922 22.668 27.7578 22.8385 27.7578 23.0488C27.7578 23.2591 27.922 23.4296 28.1245 23.4296Z" fill="#000080"/>
<path d="M28.1245 21.7577C28.327 21.7577 28.4911 21.5872 28.4911 21.3769C28.4911 21.1666 28.327 20.9961 28.1245 20.9961C27.922 20.9961 27.7578 21.1666 27.7578 21.3769C27.7578 21.5872 27.922 21.7577 28.1245 21.7577Z" fill="#000080"/>
<path d="M27.7065 20.1366C27.909 20.1366 28.0732 19.9661 28.0732 19.7558C28.0732 19.5455 27.909 19.375 27.7065 19.375C27.504 19.375 27.3398 19.5455 27.3398 19.7558C27.3398 19.9661 27.504 20.1366 27.7065 20.1366Z" fill="#000080"/>
<path d="M26.8999 18.6835C27.1024 18.6835 27.2665 18.513 27.2665 18.3027C27.2665 18.0924 27.1024 17.9219 26.8999 17.9219C26.6974 17.9219 26.5332 18.0924 26.5332 18.3027C26.5332 18.513 26.6974 18.6835 26.8999 18.6835Z" fill="#000080"/>
<path d="M25.7612 17.4999C25.9637 17.4999 26.1279 17.3294 26.1279 17.1191C26.1279 16.9088 25.9637 16.7383 25.7612 16.7383C25.5587 16.7383 25.3945 16.9088 25.3945 17.1191C25.3945 17.3294 25.5587 17.4999 25.7612 17.4999Z" fill="#000080"/>
<path d="M24.3628 16.664C24.5653 16.664 24.7294 16.4935 24.7294 16.2832C24.7294 16.0728 24.5653 15.9023 24.3628 15.9023C24.1603 15.9023 23.9961 16.0728 23.9961 16.2832C23.9961 16.4935 24.1603 16.664 24.3628 16.664Z" fill="#000080"/>
<path d="M22.8061 16.2304C23.0086 16.2304 23.1728 16.0599 23.1728 15.8496C23.1728 15.6392 23.0086 15.4688 22.8061 15.4688C22.6036 15.4688 22.4395 15.6392 22.4395 15.8496C22.4395 16.0599 22.6036 16.2304 22.8061 16.2304Z" fill="#000080"/>
<path d="M21.9977 23.9234C22.9089 23.9234 23.6477 23.1562 23.6477 22.2098C23.6477 21.2633 22.9089 20.4961 21.9977 20.4961C21.0864 20.4961 20.3477 21.2633 20.3477 22.2098C20.3477 23.1562 21.0864 23.9234 21.9977 23.9234Z" fill="#000080"/>
</g>
</svg>
