<svg width="63" height="63" viewBox="0 0 63 63" fill="none" xmlns="http://www.w3.org/2000/svg">
<circle cx="31.4636" cy="31.4636" r="31.4636" fill="black"/>
<path fill-rule="evenodd" clip-rule="evenodd" d="M31.4642 12.3438C20.9051 12.3438 12.3457 20.9031 12.3457 31.4622C12.3457 42.0214 20.9051 50.5807 31.4642 50.5807C42.0233 50.5807 50.5827 42.0214 50.5827 31.4622C50.5827 20.9031 42.0233 12.3438 31.4642 12.3438ZM15.8176 22.4766C17.3837 19.7582 19.6306 17.4944 22.3372 15.9081C25.0439 14.3218 28.1169 13.4677 31.2539 13.4297L28.7819 29.8142L15.7125 40.3734C14.1705 37.6393 13.3691 34.5499 13.3875 31.411C13.4059 28.2721 14.2436 25.1924 15.8176 22.4766ZM31.5388 49.5866C28.3972 49.6053 25.3053 48.8019 22.5703 47.2561C19.8352 45.7103 17.5521 43.4759 15.9476 40.7749L31.4718 34.3491L47.0534 40.6774C45.4648 43.3828 43.1984 45.6274 40.4777 47.1897C37.7571 48.752 34.6761 49.5782 31.5388 49.5866ZM34.0739 30.0322L31.7166 13.4297C34.8399 13.477 37.8977 14.3333 40.5914 15.9151C43.2856 17.4943 45.5251 19.7443 47.0917 22.446C48.664 25.1435 49.5087 28.2032 49.5433 31.3253C49.5778 34.4475 48.8009 37.5251 47.2886 40.2568L34.0739 30.0322Z" fill="white"/>
</svg>
