<svg width="129" height="129" viewBox="0 0 129 129" fill="none" xmlns="http://www.w3.org/2000/svg">
<path d="M64.1897 53.4924C69.8644 53.4924 75.3067 51.2381 79.3193 47.2254C83.332 43.2128 85.5862 37.7705 85.5862 32.0958C85.5862 26.4211 83.332 20.9788 79.3193 16.9661C75.3067 12.9535 69.8644 10.6992 64.1897 10.6992C58.5149 10.6992 53.0726 12.9535 49.06 16.9661C45.0474 20.9788 42.7931 26.4211 42.7931 32.0958C42.7931 37.7705 45.0474 43.2128 49.06 47.2254C53.0726 51.2381 58.5149 53.4924 64.1897 53.4924ZM29.4202 69.5398C32.9669 69.5398 36.3684 68.1309 38.8763 65.623C41.3842 63.1151 42.7931 59.7136 42.7931 56.1669C42.7931 52.6202 41.3842 49.2188 38.8763 46.7109C36.3684 44.203 32.9669 42.7941 29.4202 42.7941C25.8735 42.7941 22.4721 44.203 19.9642 46.7109C17.4563 49.2188 16.0474 52.6202 16.0474 56.1669C16.0474 59.7136 17.4563 63.1151 19.9642 65.623C22.4721 68.1309 25.8735 69.5398 29.4202 69.5398ZM112.332 56.1669C112.332 59.7136 110.923 63.1151 108.415 65.623C105.907 68.1309 102.506 69.5398 98.9591 69.5398C95.4124 69.5398 92.0109 68.1309 89.5031 65.623C86.9952 63.1151 85.5862 59.7136 85.5862 56.1669C85.5862 52.6202 86.9952 49.2188 89.5031 46.7109C92.0109 44.203 95.4124 42.7941 98.9591 42.7941C102.506 42.7941 105.907 44.203 108.415 46.7109C110.923 49.2188 112.332 52.6202 112.332 56.1669ZM64.1897 58.8415C71.2831 58.8415 78.0859 61.6593 83.1017 66.6751C88.1175 71.6909 90.9354 78.4938 90.9354 85.5872V117.682H37.444V85.5872C37.444 78.4938 40.2618 71.6909 45.2776 66.6751C50.2934 61.6593 57.0963 58.8415 64.1897 58.8415ZM26.7457 85.5872C26.7457 81.8802 27.2806 78.3017 28.2862 74.921L27.3769 74.9959C22.792 75.4993 18.5543 77.6775 15.4764 81.1127C12.3985 84.548 10.697 88.9985 10.6982 93.6109V117.682H26.7457V85.5872ZM117.681 117.682V93.6109C117.682 88.8415 115.862 84.2516 112.593 80.7782C109.325 77.3049 104.854 75.2099 100.093 74.921C101.093 78.3017 101.634 81.8802 101.634 85.5872V117.682H117.681Z" fill="white"/>
</svg>
