<svg width="2728" height="1969" viewBox="0 0 2728 1969" fill="none" xmlns="http://www.w3.org/2000/svg">
<path d="M1043.81 934.039L1145.29 974.129" stroke="#777777" stroke-width="17.5392"/>
<path d="M2150.04 1480.89L2252.14 1544.15L2254.65 1524.73L2150.04 1480.89Z" fill="#777777"/>
<path d="M2260.28 1510.96C2267.8 1511.58 2282.46 1516.09 2280.95 1529.12C2279.45 1542.15 2271.56 1556.26 2267.8 1561.69H2248.38" stroke="#777777" stroke-width="3.7584"/>
<path d="M721.546 586.783L664.755 524.144C654.941 511.407 625.041 490.068 583.949 506.605C542.857 523.142 518.804 540.639 511.913 547.32C501.891 555.672 485.855 579.643 501.891 608.707C517.927 637.772 540.728 667.171 550.124 678.238C564.948 691.81 606.75 714.193 655.359 695.151C703.968 676.108 721.548 601.191 724.263 566.112" stroke="#777777" stroke-width="16.2864"/>
<path d="M1072.63 1152.04C1087.66 1150.37 1123.12 1164.56 1117.1 1207.15" stroke="#777777" stroke-width="16.2864"/>
<path d="M1185.38 1134.36C1170.78 1136.03 1136.35 1121.87 1142.19 1079.36" stroke="#777777" stroke-width="16.2864"/>
<path d="M854.642 1544.15L851.579 1551.7L854.642 1544.15ZM1044.44 1565.45C1048.94 1565.45 1052.58 1561.8 1052.58 1557.31C1052.58 1552.81 1048.94 1549.16 1044.44 1549.16V1557.31V1565.45ZM842.113 1396.32L834.628 1393.11C826.516 1412.04 816.676 1444.85 815.389 1475.9C814.129 1506.27 821.055 1539.31 851.579 1551.7L854.642 1544.15L857.705 1536.61C837.615 1528.45 830.447 1505.85 831.661 1476.57C832.847 1447.98 842.05 1417.14 849.598 1399.53L842.113 1396.32ZM854.642 1544.15L851.579 1551.7C876.754 1561.92 896.527 1565.35 924.389 1566.21C951.567 1567.06 987.707 1565.45 1044.44 1565.45V1557.31V1549.16C986.543 1549.16 951.899 1550.77 924.894 1549.93C898.572 1549.12 880.762 1545.97 857.705 1536.61L854.642 1544.15Z" fill="#777777"/>
<path d="M1160.33 1063.08L716.834 1526.62C690.274 1564.2 727.9 1571.51 750.033 1570.46L2240.87 1556.68C2278.45 1546.66 2259.87 1515.97 2245.25 1510.96C2192.01 1491.33 2075.37 1441.05 2034.78 1396.95C1984.04 1341.83 2000.95 1261.65 2002.21 1230.33C2003.21 1205.27 1977.57 1202.77 1964.62 1204.65C1711.14 1226.78 1190.27 1271.3 1134.64 1272.3C1079.02 1273.3 1090.17 1243.07 1102.7 1227.82L1372.67 947.196C1410.26 877.541 1378.31 850.939 1357.64 846.346L1073.26 744.243C978.043 799.867 926.26 786.212 912.271 772.431C753.165 627.106 732.703 592.028 713.076 547.553C699.921 498.068 644.046 416.886 525.782 488.045C407.518 559.204 469.823 642.14 515.759 674.712L800.771 763.035C811.629 770.969 832.593 790.722 829.586 806.256C826.579 821.791 836.267 844.467 841.487 853.863L1043.19 931.536C1072.25 910.489 1094.97 915.249 1102.7 920.261C1175.36 999.939 1171.39 1048.67 1160.33 1063.08Z" stroke="white" stroke-width="21.2976"/>
<path d="M1160.33 1063.08L716.834 1526.62C690.274 1564.2 727.9 1571.51 750.033 1570.46L2240.87 1556.68C2278.45 1546.66 2259.87 1515.97 2245.25 1510.96C2192.01 1491.33 2075.37 1441.05 2034.78 1396.95C1984.04 1341.83 2000.95 1261.65 2002.21 1230.33C2003.21 1205.27 1977.57 1202.77 1964.62 1204.65C1711.14 1226.78 1190.27 1271.3 1134.64 1272.3C1079.02 1273.3 1090.17 1243.07 1102.7 1227.82L1372.67 947.196C1410.26 877.541 1378.31 850.939 1357.64 846.346L1073.26 744.243C978.043 799.867 926.26 786.212 912.271 772.431C753.165 627.106 732.703 592.028 713.076 547.553C699.921 498.068 644.046 416.886 525.782 488.045C407.518 559.204 469.823 642.14 515.759 674.712L800.771 763.035C811.629 770.969 832.593 790.722 829.586 806.256C826.579 821.791 836.267 844.467 841.487 853.863L1043.19 931.536C1072.25 910.489 1094.97 915.249 1102.7 920.261C1175.36 999.939 1171.39 1048.67 1160.33 1063.08Z" stroke="#CA0201" stroke-width="4.17972"/>
<path d="M1103.32 1275.43L1117.73 1309.88L1186.01 1313.01L1303.77 1275.43L1564.98 1262.27L1826.81 1233.46L1871.29 1221.56" stroke="white" stroke-width="3.7584"/>
<rect x="1312.9" y="1206.98" width="22.1092" height="96.4656" transform="rotate(-4.20492 1312.9 1206.98)" fill="white"/>
<ellipse cx="1050.7" cy="1263.53" rx="27.5616" ry="27.5616" fill="white"/>
<ellipse cx="1123.99" cy="1043.03" rx="27.5616" ry="27.5616" fill="white"/>
<ellipse cx="1023.77" cy="971.626" rx="27.5616" ry="27.5616" fill="white"/>
<ellipse cx="1105.2" cy="875.157" rx="27.5616" ry="27.5616" fill="white"/>
<ellipse cx="814.552" cy="885.181" rx="27.5616" ry="27.5616" fill="white"/>
<ellipse cx="779.473" cy="802.497" rx="27.5616" ry="27.5616" fill="white"/>
<ellipse cx="421.172" cy="644.646" rx="27.5616" ry="27.5616" fill="white"/>
<ellipse cx="683.008" cy="429.164" rx="27.5616" ry="27.5616" fill="white"/>
<ellipse cx="773.21" cy="566.971" rx="27.5616" ry="27.5616" fill="white"/>
<ellipse cx="946.097" cy="741.108" rx="27.5616" ry="27.5616" fill="white"/>
<ellipse cx="1075.13" cy="698.517" rx="27.5616" ry="27.5616" fill="white"/>
<ellipse cx="1430.93" cy="880.171" rx="27.5616" ry="27.5616" fill="white"/>
<ellipse cx="2024.76" cy="1174.58" rx="27.5616" ry="27.5616" fill="white"/>
<ellipse cx="2077.37" cy="1372.52" rx="27.5616" ry="27.5616" fill="white"/>
<ellipse cx="2306.64" cy="1550.42" rx="27.5616" ry="27.5616" fill="white"/>
<ellipse cx="667.975" cy="1555.43" rx="27.5616" ry="27.5616" fill="white"/>
<path d="M1031.93 1257.33V1255.55H1044.32V1257.33H1039.12V1272.07H1037.12V1257.33H1031.93ZM1052.92 1255.55V1272.07H1050.92V1257.65H1050.82L1046.79 1260.33V1258.29L1050.92 1255.55H1052.92ZM1063.15 1272.29C1062.48 1272.28 1061.8 1272.15 1061.12 1271.91C1060.44 1271.66 1059.83 1271.24 1059.27 1270.66C1058.71 1270.06 1058.26 1269.27 1057.92 1268.26C1057.58 1267.25 1057.41 1265.98 1057.41 1264.45C1057.41 1262.99 1057.55 1261.7 1057.82 1260.57C1058.1 1259.43 1058.5 1258.48 1059.02 1257.7C1059.54 1256.92 1060.17 1256.33 1060.9 1255.93C1061.65 1255.53 1062.48 1255.33 1063.41 1255.33C1064.34 1255.33 1065.16 1255.51 1065.88 1255.88C1066.61 1256.25 1067.2 1256.76 1067.65 1257.41C1068.11 1258.07 1068.41 1258.83 1068.54 1259.68H1066.57C1066.39 1258.94 1066.04 1258.32 1065.51 1257.83C1064.98 1257.34 1064.28 1257.1 1063.41 1257.1C1062.13 1257.1 1061.12 1257.66 1060.39 1258.77C1059.66 1259.88 1059.29 1261.44 1059.28 1263.45H1059.41C1059.71 1263 1060.07 1262.61 1060.48 1262.28C1060.9 1261.96 1061.37 1261.7 1061.87 1261.53C1062.38 1261.35 1062.91 1261.26 1063.48 1261.26C1064.42 1261.26 1065.29 1261.5 1066.07 1261.97C1066.86 1262.44 1067.49 1263.09 1067.96 1263.91C1068.43 1264.74 1068.67 1265.68 1068.67 1266.74C1068.67 1267.77 1068.44 1268.7 1067.98 1269.55C1067.53 1270.39 1066.88 1271.07 1066.06 1271.57C1065.23 1272.06 1064.27 1272.3 1063.15 1272.29ZM1063.15 1270.52C1063.83 1270.52 1064.44 1270.35 1064.98 1270.01C1065.52 1269.67 1065.95 1269.22 1066.26 1268.65C1066.58 1268.08 1066.73 1267.44 1066.73 1266.74C1066.73 1266.06 1066.58 1265.44 1066.27 1264.88C1065.97 1264.32 1065.56 1263.87 1065.02 1263.53C1064.5 1263.2 1063.9 1263.03 1063.22 1263.03C1062.71 1263.03 1062.23 1263.14 1061.79 1263.34C1061.35 1263.54 1060.96 1263.81 1060.63 1264.16C1060.3 1264.51 1060.04 1264.91 1059.86 1265.37C1059.67 1265.81 1059.57 1266.28 1059.57 1266.78C1059.57 1267.43 1059.73 1268.05 1060.03 1268.61C1060.34 1269.18 1060.77 1269.64 1061.31 1269.99C1061.85 1270.34 1062.47 1270.52 1063.15 1270.52Z" fill="black"/>
<path d="M1110.06 1036.51V1034.74H1122.44V1036.51H1117.25V1051.25H1115.25V1036.51H1110.06ZM1130.4 1051.48C1129.45 1051.48 1128.6 1051.29 1127.84 1050.92C1127.09 1050.54 1126.48 1050.02 1126.02 1049.37C1125.56 1048.71 1125.31 1047.96 1125.27 1047.13H1127.21C1127.28 1047.87 1127.62 1048.49 1128.22 1048.98C1128.83 1049.46 1129.56 1049.71 1130.4 1049.71C1131.08 1049.71 1131.68 1049.55 1132.21 1049.23C1132.74 1048.91 1133.16 1048.48 1133.46 1047.92C1133.76 1047.36 1133.92 1046.73 1133.92 1046.03C1133.92 1045.31 1133.76 1044.67 1133.44 1044.1C1133.13 1043.53 1132.7 1043.08 1132.15 1042.75C1131.6 1042.43 1130.98 1042.26 1130.27 1042.25C1129.77 1042.25 1129.25 1042.33 1128.71 1042.49C1128.18 1042.64 1127.74 1042.85 1127.4 1043.09L1125.53 1042.87L1126.53 1034.74H1135.11V1036.51H1128.21L1127.63 1041.38H1127.72C1128.06 1041.11 1128.49 1040.89 1129 1040.71C1129.51 1040.54 1130.04 1040.45 1130.59 1040.45C1131.6 1040.45 1132.5 1040.69 1133.29 1041.17C1134.09 1041.65 1134.71 1042.31 1135.17 1043.14C1135.62 1043.97 1135.85 1044.93 1135.85 1046C1135.85 1047.05 1135.61 1047.99 1135.14 1048.82C1134.67 1049.64 1134.03 1050.29 1133.21 1050.77C1132.38 1051.24 1131.45 1051.48 1130.4 1051.48Z" fill="black"/>
<path d="M1009.83 965.104V963.33H1022.22V965.104H1017.03V979.846H1015.03V965.104H1009.83ZM1025.53 979.846L1032.92 965.234V965.104H1024.4V963.33H1034.98V965.201L1027.63 979.846H1025.53Z" fill="black"/>
<path d="M1091.26 868.636V866.862H1103.65V868.636H1098.46V883.377H1096.46V868.636H1091.26ZM1111.93 883.603C1111.25 883.592 1110.58 883.463 1109.9 883.216C1109.22 882.968 1108.6 882.552 1108.04 881.966C1107.48 881.374 1107.04 880.576 1106.7 879.571C1106.36 878.56 1106.19 877.291 1106.19 875.764C1106.19 874.302 1106.33 873.006 1106.6 871.878C1106.87 870.743 1107.27 869.789 1107.79 869.015C1108.32 868.235 1108.94 867.644 1109.68 867.241C1110.42 866.837 1111.26 866.636 1112.19 866.636C1113.11 866.636 1113.94 866.821 1114.66 867.192C1115.38 867.558 1115.97 868.069 1116.43 868.724C1116.89 869.38 1117.18 870.136 1117.32 870.99H1115.35C1115.17 870.249 1114.81 869.633 1114.29 869.144C1113.76 868.655 1113.06 868.41 1112.19 868.41C1110.91 868.41 1109.9 868.966 1109.17 870.079C1108.43 871.192 1108.07 872.754 1108.06 874.764H1108.19C1108.49 874.308 1108.85 873.918 1109.26 873.595C1109.68 873.267 1110.14 873.015 1110.65 872.837C1111.15 872.66 1111.69 872.571 1112.25 872.571C1113.2 872.571 1114.07 872.808 1114.85 873.281C1115.64 873.748 1116.26 874.396 1116.74 875.224C1117.21 876.047 1117.45 876.99 1117.45 878.055C1117.45 879.076 1117.22 880.012 1116.76 880.861C1116.3 881.705 1115.66 882.377 1114.83 882.877C1114.01 883.372 1113.04 883.614 1111.93 883.603ZM1111.93 881.829C1112.61 881.829 1113.22 881.659 1113.75 881.321C1114.3 880.982 1114.72 880.528 1115.04 879.958C1115.35 879.388 1115.51 878.754 1115.51 878.055C1115.51 877.372 1115.36 876.751 1115.05 876.192C1114.75 875.627 1114.33 875.178 1113.8 874.845C1113.28 874.512 1112.67 874.345 1112 874.345C1111.48 874.345 1111.01 874.447 1110.57 874.652C1110.13 874.85 1109.74 875.125 1109.41 875.474C1109.08 875.824 1108.82 876.224 1108.63 876.676C1108.44 877.122 1108.35 877.592 1108.35 878.087C1108.35 878.743 1108.5 879.356 1108.81 879.926C1109.12 880.495 1109.55 880.955 1110.08 881.304C1110.63 881.654 1111.24 881.829 1111.93 881.829Z" fill="black"/>
<path d="M800.615 878.659V876.885H813.001V878.659H807.808V893.4H805.808V878.659H800.615ZM821.088 893.626C819.98 893.626 819.002 893.43 818.152 893.038C817.308 892.64 816.65 892.094 816.177 891.4C815.703 890.702 815.47 889.906 815.475 889.014C815.47 888.315 815.607 887.669 815.886 887.078C816.166 886.481 816.547 885.984 817.031 885.586C817.521 885.183 818.066 884.928 818.668 884.82V884.723C817.878 884.519 817.249 884.076 816.781 883.393C816.314 882.705 816.082 881.922 816.088 881.046C816.082 880.207 816.295 879.458 816.725 878.796C817.155 878.135 817.746 877.614 818.499 877.232C819.257 876.85 820.12 876.659 821.088 876.659C822.045 876.659 822.899 876.85 823.652 877.232C824.405 877.614 824.996 878.135 825.426 878.796C825.862 879.458 826.082 880.207 826.087 881.046C826.082 881.922 825.843 882.705 825.37 883.393C824.902 884.076 824.281 884.519 823.507 884.723V884.82C824.104 884.928 824.641 885.183 825.12 885.586C825.598 885.984 825.98 886.481 826.265 887.078C826.55 887.669 826.695 888.315 826.7 889.014C826.695 889.906 826.453 890.702 825.974 891.4C825.501 892.094 824.843 892.64 823.999 893.038C823.16 893.43 822.19 893.626 821.088 893.626ZM821.088 891.852C821.835 891.852 822.48 891.731 823.023 891.489C823.566 891.247 823.985 890.906 824.281 890.465C824.577 890.024 824.727 889.508 824.733 888.917C824.727 888.293 824.566 887.742 824.249 887.264C823.932 886.785 823.499 886.409 822.95 886.135C822.407 885.86 821.786 885.723 821.088 885.723C820.383 885.723 819.754 885.86 819.201 886.135C818.652 886.409 818.219 886.785 817.902 887.264C817.59 887.742 817.437 888.293 817.443 888.917C817.437 889.508 817.58 890.024 817.87 890.465C818.166 890.906 818.588 891.247 819.136 891.489C819.684 891.731 820.335 891.852 821.088 891.852ZM821.088 884.014C821.679 884.014 822.203 883.895 822.66 883.659C823.122 883.422 823.485 883.092 823.749 882.667C824.012 882.242 824.147 881.745 824.152 881.175C824.147 880.616 824.015 880.13 823.757 879.716C823.499 879.296 823.141 878.974 822.684 878.748C822.227 878.517 821.695 878.401 821.088 878.401C820.469 878.401 819.929 878.517 819.467 878.748C819.004 878.974 818.647 879.296 818.394 879.716C818.141 880.13 818.018 880.616 818.023 881.175C818.018 881.745 818.144 882.242 818.402 882.667C818.666 883.092 819.029 883.422 819.491 883.659C819.953 883.895 820.485 884.014 821.088 884.014Z" fill="black"/>
<path d="M765.537 795.974V794.2H777.923V795.974H772.73V810.715H770.73V795.974H765.537ZM785.977 793.974C786.655 793.979 787.332 794.108 788.009 794.361C788.687 794.613 789.305 795.033 789.864 795.619C790.423 796.199 790.872 796.992 791.211 797.998C791.549 799.003 791.719 800.264 791.719 801.78C791.719 803.247 791.579 804.551 791.3 805.691C791.025 806.825 790.627 807.782 790.106 808.562C789.59 809.341 788.961 809.933 788.219 810.336C787.482 810.739 786.649 810.941 785.719 810.941C784.794 810.941 783.969 810.758 783.243 810.392C782.523 810.021 781.932 809.508 781.469 808.852C781.012 808.191 780.719 807.425 780.59 806.554H782.558C782.735 807.312 783.088 807.938 783.614 808.433C784.147 808.922 784.848 809.167 785.719 809.167C786.993 809.167 787.999 808.61 788.735 807.497C789.477 806.384 789.848 804.812 789.848 802.78H789.719C789.418 803.231 789.06 803.621 788.646 803.949C788.232 804.277 787.773 804.53 787.267 804.707C786.762 804.884 786.224 804.973 785.655 804.973C784.708 804.973 783.84 804.739 783.05 804.272C782.265 803.799 781.636 803.151 781.163 802.328C780.695 801.5 780.461 800.554 780.461 799.49C780.461 798.479 780.687 797.554 781.139 796.716C781.596 795.871 782.235 795.199 783.058 794.7C783.886 794.2 784.859 793.958 785.977 793.974ZM785.977 795.748C785.3 795.748 784.69 795.917 784.147 796.256C783.609 796.589 783.182 797.041 782.864 797.611C782.553 798.175 782.397 798.801 782.397 799.49C782.397 800.178 782.547 800.804 782.848 801.369C783.155 801.928 783.571 802.374 784.098 802.707C784.63 803.035 785.235 803.199 785.913 803.199C786.423 803.199 786.899 803.1 787.34 802.901C787.781 802.696 788.165 802.42 788.493 802.07C788.827 801.715 789.087 801.315 789.275 800.869C789.464 800.417 789.558 799.947 789.558 799.457C789.558 798.812 789.402 798.207 789.09 797.643C788.784 797.078 788.359 796.621 787.816 796.272C787.278 795.923 786.665 795.748 785.977 795.748Z" fill="black"/>
<path d="M402.225 638.12V636.346H414.611V638.12H409.418V652.861H407.418V638.12H402.225ZM423.214 636.346V652.861H421.214V638.443H421.117L417.085 641.12V639.088L421.214 636.346H423.214ZM433.35 653.087C432.135 653.087 431.1 652.756 430.245 652.095C429.391 651.429 428.737 650.464 428.286 649.2C427.834 647.931 427.608 646.399 427.608 644.604C427.608 642.819 427.834 641.295 428.286 640.031C428.743 638.763 429.399 637.795 430.254 637.128C431.114 636.456 432.146 636.12 433.35 636.12C434.554 636.12 435.584 636.456 436.439 637.128C437.299 637.795 437.955 638.763 438.406 640.031C438.863 641.295 439.092 642.819 439.092 644.604C439.092 646.399 438.866 647.931 438.414 649.2C437.963 650.464 437.31 651.429 436.455 652.095C435.6 652.756 434.565 653.087 433.35 653.087ZM433.35 651.313C434.554 651.313 435.49 650.732 436.156 649.571C436.823 648.41 437.156 646.754 437.156 644.604C437.156 643.174 437.003 641.956 436.697 640.951C436.396 639.945 435.96 639.179 435.39 638.652C434.826 638.125 434.146 637.862 433.35 637.862C432.157 637.862 431.224 638.451 430.552 639.628C429.88 640.8 429.544 642.459 429.544 644.604C429.544 646.034 429.694 647.249 429.995 648.249C430.297 649.249 430.729 650.009 431.294 650.531C431.864 651.052 432.549 651.313 433.35 651.313Z" fill="black"/>
<path d="M665.313 422.64V420.866H677.7V422.64H672.506V437.381H670.506V422.64H665.313ZM686.302 420.866V437.381H684.302V422.962H684.205L680.173 425.64V423.607L684.302 420.866H686.302ZM696.858 420.866V437.381H694.858V422.962H694.761L690.729 425.64V423.607L694.858 420.866H696.858Z" fill="black"/>
<path d="M754.262 560.446V558.672H766.648V560.446H761.455V575.188H759.455V560.446H754.262ZM775.251 558.672V575.188H773.251V560.769H773.154L769.122 563.446V561.414L773.251 558.672H775.251ZM780 575.188V573.736L785.452 567.769C786.092 567.07 786.618 566.462 787.032 565.946C787.446 565.425 787.753 564.935 787.952 564.478C788.156 564.016 788.258 563.532 788.258 563.027C788.258 562.446 788.118 561.944 787.839 561.519C787.565 561.094 787.188 560.766 786.71 560.535C786.231 560.304 785.694 560.188 785.097 560.188C784.463 560.188 783.909 560.32 783.436 560.583C782.968 560.841 782.605 561.204 782.347 561.672C782.094 562.14 781.968 562.688 781.968 563.317H780.065C780.065 562.349 780.288 561.5 780.734 560.769C781.18 560.038 781.788 559.468 782.557 559.059C783.331 558.651 784.199 558.446 785.161 558.446C786.129 558.446 786.987 558.651 787.734 559.059C788.481 559.468 789.067 560.019 789.492 560.712C789.917 561.406 790.129 562.177 790.129 563.027C790.129 563.634 790.019 564.228 789.798 564.809C789.583 565.384 789.207 566.027 788.669 566.736C788.137 567.441 787.398 568.301 786.452 569.317L782.742 573.284V573.413H790.419V575.188H780Z" fill="black"/>
<path d="M927.148 734.589V732.815H939.535V734.589H934.342V749.33H932.342V734.589H927.148ZM948.137 732.815V749.33H946.137V734.911H946.041L942.009 737.589V735.557L946.137 732.815H948.137ZM958.468 749.556C957.403 749.556 956.454 749.373 955.621 749.008C954.793 748.642 954.134 748.134 953.645 747.483C953.161 746.828 952.898 746.067 952.855 745.201H954.887C954.93 745.733 955.113 746.193 955.435 746.58C955.758 746.962 956.18 747.258 956.701 747.467C957.223 747.677 957.801 747.782 958.435 747.782C959.145 747.782 959.774 747.658 960.322 747.411C960.871 747.164 961.301 746.819 961.613 746.379C961.924 745.938 962.08 745.427 962.08 744.846C962.08 744.239 961.93 743.704 961.629 743.242C961.328 742.774 960.887 742.408 960.306 742.145C959.726 741.882 959.016 741.75 958.177 741.75H956.855V739.976H958.177C958.833 739.976 959.408 739.857 959.903 739.621C960.403 739.384 960.793 739.051 961.072 738.621C961.357 738.191 961.5 737.685 961.5 737.105C961.5 736.546 961.376 736.059 961.129 735.645C960.881 735.231 960.532 734.909 960.08 734.678C959.634 734.446 959.107 734.331 958.5 734.331C957.93 734.331 957.392 734.436 956.887 734.645C956.387 734.85 955.978 735.148 955.661 735.54C955.344 735.928 955.172 736.395 955.145 736.944H953.21C953.242 736.078 953.503 735.32 953.992 734.67C954.481 734.014 955.121 733.503 955.911 733.137C956.707 732.772 957.58 732.589 958.532 732.589C959.553 732.589 960.43 732.796 961.161 733.21C961.892 733.618 962.454 734.159 962.846 734.831C963.239 735.503 963.435 736.229 963.435 737.008C963.435 737.938 963.19 738.731 962.701 739.387C962.217 740.043 961.559 740.497 960.725 740.75V740.879C961.768 741.051 962.583 741.494 963.169 742.209C963.755 742.919 964.048 743.798 964.048 744.846C964.048 745.744 963.803 746.551 963.314 747.266C962.83 747.975 962.169 748.534 961.33 748.943C960.492 749.352 959.537 749.556 958.468 749.556Z" fill="black"/>
<path d="M1056.19 691.991V690.217H1068.57V691.991H1063.38V706.732H1061.38V691.991H1056.19ZM1077.17 690.217V706.732H1075.18V692.314H1075.08L1071.05 694.991V692.959L1075.18 690.217H1077.17ZM1081.54 703.345V701.7L1088.8 690.217H1089.99V692.765H1089.18L1083.7 701.442V701.571H1093.47V703.345H1081.54ZM1089.31 706.732V702.846V702.079V690.217H1091.21V706.732H1089.31Z" fill="black"/>
<path d="M1411.98 873.649V871.875H1424.37V873.649H1419.17V888.391H1417.17V873.649H1411.98ZM1432.97 871.875V888.391H1430.97V873.972H1430.87L1426.84 876.649V874.617L1430.97 871.875H1432.97ZM1442.88 888.616C1441.93 888.616 1441.08 888.428 1440.32 888.052C1439.57 887.676 1438.96 887.16 1438.5 886.504C1438.05 885.848 1437.8 885.1 1437.75 884.262H1439.69C1439.76 885.009 1440.1 885.627 1440.7 886.117C1441.31 886.6 1442.04 886.842 1442.88 886.842C1443.56 886.842 1444.16 886.684 1444.69 886.367C1445.22 886.049 1445.64 885.614 1445.94 885.06C1446.24 884.501 1446.4 883.869 1446.4 883.165C1446.4 882.445 1446.24 881.802 1445.92 881.238C1445.61 880.668 1445.18 880.219 1444.63 879.891C1444.08 879.563 1443.46 879.396 1442.75 879.391C1442.25 879.386 1441.73 879.464 1441.2 879.625C1440.66 879.781 1440.23 879.982 1439.88 880.23L1438.01 880.004L1439.01 871.875H1447.59V873.649H1440.69L1440.11 878.52H1440.2C1440.54 878.251 1440.97 878.028 1441.48 877.851C1441.99 877.673 1442.52 877.585 1443.07 877.585C1444.09 877.585 1444.99 877.827 1445.78 878.31C1446.57 878.789 1447.2 879.445 1447.65 880.278C1448.1 881.111 1448.33 882.063 1448.33 883.133C1448.33 884.187 1448.1 885.127 1447.62 885.955C1447.16 886.778 1446.51 887.428 1445.69 887.907C1444.86 888.38 1443.93 888.616 1442.88 888.616Z" fill="black"/>
<path d="M2012.07 1168.06V1166.28H2024.46V1168.06H2019.27V1182.8H2017.27V1168.06H2012.07ZM2033.06 1166.28V1182.8H2031.06V1168.38H2030.96L2026.93 1171.06V1169.03L2031.06 1166.28H2033.06Z" fill="black"/>
<path d="M2063.44 1366V1364.22H2075.82V1366H2070.63V1380.74H2068.63V1366H2063.44ZM2078.62 1380.74V1379.29L2084.07 1373.32C2084.71 1372.62 2085.24 1372.01 2085.65 1371.5C2086.07 1370.98 2086.37 1370.49 2086.57 1370.03C2086.78 1369.57 2086.88 1369.08 2086.88 1368.58C2086.88 1368 2086.74 1367.5 2086.46 1367.07C2086.18 1366.65 2085.81 1366.32 2085.33 1366.09C2084.85 1365.86 2084.31 1365.74 2083.72 1365.74C2083.08 1365.74 2082.53 1365.87 2082.06 1366.14C2081.59 1366.39 2081.22 1366.76 2080.97 1367.22C2080.71 1367.69 2080.59 1368.24 2080.59 1368.87H2078.68C2078.68 1367.9 2078.91 1367.05 2079.35 1366.32C2079.8 1365.59 2080.41 1365.02 2081.18 1364.61C2081.95 1364.2 2082.82 1364 2083.78 1364C2084.75 1364 2085.61 1364.2 2086.35 1364.61C2087.1 1365.02 2087.69 1365.57 2088.11 1366.27C2088.54 1366.96 2088.75 1367.73 2088.75 1368.58C2088.75 1369.19 2088.64 1369.78 2088.42 1370.36C2088.2 1370.94 2087.83 1371.58 2087.29 1372.29C2086.76 1372.99 2086.02 1373.85 2085.07 1374.87L2081.36 1378.84V1378.97H2089.04V1380.74H2078.62Z" fill="black"/>
<path d="M2292.7 1543.9V1542.12H2305.09V1543.9H2299.89V1558.64H2297.89V1543.9H2292.7ZM2313.46 1558.86C2312.4 1558.86 2311.45 1558.68 2310.62 1558.31C2309.79 1557.95 2309.13 1557.44 2308.64 1556.79C2308.16 1556.13 2307.89 1555.37 2307.85 1554.51H2309.88C2309.93 1555.04 2310.11 1555.5 2310.43 1555.89C2310.75 1556.27 2311.18 1556.56 2311.7 1556.77C2312.22 1556.98 2312.8 1557.09 2313.43 1557.09C2314.14 1557.09 2314.77 1556.96 2315.32 1556.72C2315.87 1556.47 2316.3 1556.13 2316.61 1555.69C2316.92 1555.24 2317.08 1554.73 2317.08 1554.15C2317.08 1553.55 2316.93 1553.01 2316.62 1552.55C2316.32 1552.08 2315.88 1551.72 2315.3 1551.45C2314.72 1551.19 2314.01 1551.06 2313.17 1551.06H2311.85V1549.28H2313.17C2313.83 1549.28 2314.4 1549.16 2314.9 1548.93C2315.4 1548.69 2315.79 1548.36 2316.07 1547.93C2316.35 1547.5 2316.5 1546.99 2316.5 1546.41C2316.5 1545.85 2316.37 1545.37 2316.12 1544.95C2315.88 1544.54 2315.53 1544.22 2315.08 1543.98C2314.63 1543.75 2314.1 1543.64 2313.5 1543.64C2312.93 1543.64 2312.39 1543.74 2311.88 1543.95C2311.38 1544.16 2310.97 1544.45 2310.66 1544.85C2310.34 1545.23 2310.17 1545.7 2310.14 1546.25H2308.21C2308.24 1545.38 2308.5 1544.63 2308.99 1543.98C2309.48 1543.32 2310.12 1542.81 2310.91 1542.44C2311.7 1542.08 2312.58 1541.9 2313.53 1541.9C2314.55 1541.9 2315.43 1542.1 2316.16 1542.52C2316.89 1542.93 2317.45 1543.47 2317.84 1544.14C2318.23 1544.81 2318.43 1545.54 2318.43 1546.31C2318.43 1547.24 2318.19 1548.04 2317.7 1548.69C2317.21 1549.35 2316.55 1549.8 2315.72 1550.06V1550.19C2316.76 1550.36 2317.58 1550.8 2318.16 1551.52C2318.75 1552.23 2319.04 1553.1 2319.04 1554.15C2319.04 1555.05 2318.8 1555.86 2318.31 1556.57C2317.83 1557.28 2317.16 1557.84 2316.33 1558.25C2315.49 1558.66 2314.53 1558.86 2313.46 1558.86Z" fill="black"/>
<path d="M654.037 1548.91V1547.13H666.424V1548.91H661.23V1563.65H659.23V1548.91H654.037ZM667.28 1560.26V1558.62L674.538 1547.13H675.732V1549.68H674.925L669.442 1558.36V1558.49H679.215V1560.26H667.28ZM675.054 1563.65V1559.76V1559V1547.13H676.957V1563.65H675.054Z" fill="black"/>
<path d="M1580.33 1237.55L1562.95 1229.14L1564.36 1248.39L1580.33 1237.55ZM1530.31 1241.21L1530.43 1242.87L1565.44 1240.31L1565.32 1238.65L1565.2 1236.98L1530.19 1239.54L1530.31 1241.21Z" fill="#CA0201"/>
<path d="M1407.11 1564.46L1423.83 1574.11L1423.83 1554.81L1407.11 1564.46ZM1457.26 1564.46L1457.26 1562.79L1422.16 1562.79L1422.16 1564.46L1422.16 1566.13L1457.26 1566.13L1457.26 1564.46Z" fill="#CA0201"/>
<path d="M957.076 1276.58L938.429 1281.58L952.08 1295.23L957.076 1276.58ZM921.617 1312.04L922.799 1313.23L947.619 1288.41L946.437 1287.22L945.254 1286.04L920.435 1310.86L921.617 1312.04Z" fill="#CA0201"/>
<path d="M614.219 706.921L627.87 720.572L632.867 701.925L614.219 706.921ZM662.657 719.9L663.09 718.285L629.186 709.201L628.753 710.816L628.321 712.431L662.225 721.515L662.657 719.9Z" fill="#CA0201"/>
<path d="M1034.91 765.474L1015.96 761.779L1022.24 780.036L1034.91 765.474ZM987.488 781.771L988.031 783.353L1021.23 771.945L1020.68 770.364L1020.14 768.783L986.944 780.19L987.488 781.771Z" fill="#CA0201"/>
<path d="M1211.94 1114.43L1230.58 1109.43L1216.93 1095.78L1211.94 1114.43ZM1247.4 1078.97L1246.21 1077.79L1221.39 1102.61L1222.58 1103.79L1223.76 1104.97L1248.58 1080.15L1247.4 1078.97Z" fill="#CA0201"/>
<g filter="url(#filter0_f_1155_233)">
<path d="M1043.81 926.365L1145.29 966.455" stroke="#777777" stroke-width="17.5392"/>
<path d="M2150.04 1473.21L2252.14 1536.48L2254.65 1517.06L2150.04 1473.21Z" fill="#777777"/>
<path d="M2260.28 1503.28C2267.8 1503.91 2282.46 1508.42 2280.95 1521.45C2279.45 1534.48 2271.56 1548.59 2267.8 1554.02H2248.38" stroke="#777777" stroke-width="3.7584"/>
<path d="M721.546 579.112L664.755 516.472C654.941 503.735 625.041 482.396 583.949 498.933C542.857 515.47 518.804 532.967 511.913 539.648C501.891 548 485.855 571.971 501.891 601.036C517.927 630.101 540.728 659.5 550.124 670.566C564.948 684.138 606.75 706.521 655.359 687.479C703.968 668.436 721.548 593.519 724.263 558.44" stroke="#777777" stroke-width="16.2864"/>
<path d="M1072.63 1144.37C1087.66 1142.7 1123.12 1156.88 1117.1 1199.48" stroke="#777777" stroke-width="16.2864"/>
<path d="M1185.38 1126.68C1170.78 1128.35 1136.35 1114.2 1142.19 1071.69" stroke="#777777" stroke-width="16.2864"/>
<path d="M854.642 1536.48L851.579 1544.02L854.642 1536.48ZM1044.44 1557.78C1048.94 1557.78 1052.58 1554.13 1052.58 1549.63C1052.58 1545.14 1048.94 1541.49 1044.44 1541.49V1549.63V1557.78ZM842.113 1388.65L834.628 1385.44C826.516 1404.37 816.676 1437.17 815.389 1468.22C814.129 1498.59 821.055 1531.63 851.579 1544.02L854.642 1536.48L857.705 1528.93C837.615 1520.78 830.447 1498.17 831.661 1468.9C832.847 1440.31 842.05 1409.47 849.598 1391.86L842.113 1388.65ZM854.642 1536.48L851.579 1544.02C876.754 1554.24 896.527 1557.67 924.389 1558.54C951.567 1559.38 987.707 1557.78 1044.44 1557.78V1549.63V1541.49C986.543 1541.49 951.899 1543.1 924.894 1542.26C898.572 1541.44 880.762 1538.29 857.705 1528.93L854.642 1536.48Z" fill="#777777"/>
<path d="M1160.33 1055.41L716.834 1518.94C690.274 1556.53 727.9 1563.83 750.033 1562.79L2240.87 1549.01C2278.45 1538.99 2259.87 1508.29 2245.25 1503.28C2192.01 1483.66 2075.37 1433.38 2034.78 1389.28C1984.04 1334.15 2000.95 1253.98 2002.21 1222.66C2003.21 1197.6 1977.57 1195.09 1964.62 1196.97C1711.14 1219.11 1190.27 1263.62 1134.64 1264.62C1079.02 1265.63 1090.17 1235.39 1102.7 1220.15L1372.67 939.522C1410.26 869.867 1378.31 843.266 1357.64 838.672L1073.26 736.569C978.043 792.193 926.26 778.538 912.271 764.757C753.165 619.432 732.703 584.354 713.076 539.879C699.921 490.394 644.046 409.212 525.782 480.371C407.518 551.53 469.823 634.466 515.759 667.038L800.771 755.361C811.629 763.295 832.593 783.048 829.586 798.582C826.579 814.117 836.267 836.793 841.487 846.189L1043.19 923.862C1072.25 902.815 1094.97 907.576 1102.7 912.587C1175.36 992.265 1171.39 1041 1160.33 1055.41Z" stroke="white" stroke-width="21.2976"/>
<path d="M1103.32 1267.76L1117.73 1302.21L1186.01 1305.34L1303.77 1267.76L1564.98 1254.6L1826.81 1225.79L1871.29 1213.88" stroke="white" stroke-width="3.7584"/>
<rect x="1312.9" y="1199.31" width="22.1092" height="96.4656" transform="rotate(-4.20492 1312.9 1199.31)" fill="white"/>
<ellipse cx="1050.7" cy="1255.85" rx="27.5616" ry="27.5616" fill="white"/>
<ellipse cx="1123.99" cy="1035.36" rx="27.5616" ry="27.5616" fill="white"/>
<ellipse cx="1023.77" cy="963.952" rx="27.5616" ry="27.5616" fill="white"/>
<ellipse cx="1105.2" cy="867.483" rx="27.5616" ry="27.5616" fill="white"/>
<ellipse cx="814.552" cy="877.509" rx="27.5616" ry="27.5616" fill="white"/>
<ellipse cx="779.473" cy="794.821" rx="27.5616" ry="27.5616" fill="white"/>
<ellipse cx="421.172" cy="636.971" rx="27.5616" ry="27.5616" fill="white"/>
<ellipse cx="683.008" cy="421.49" rx="27.5616" ry="27.5616" fill="white"/>
<ellipse cx="773.21" cy="559.296" rx="27.5616" ry="27.5616" fill="white"/>
<ellipse cx="946.097" cy="733.437" rx="27.5616" ry="27.5616" fill="white"/>
<ellipse cx="1075.13" cy="690.841" rx="27.5616" ry="27.5616" fill="white"/>
<ellipse cx="1430.93" cy="872.497" rx="27.5616" ry="27.5616" fill="white"/>
<ellipse cx="2024.76" cy="1166.9" rx="27.5616" ry="27.5616" fill="white"/>
<ellipse cx="2077.37" cy="1364.85" rx="27.5616" ry="27.5616" fill="white"/>
<ellipse cx="2306.64" cy="1542.74" rx="27.5616" ry="27.5616" fill="white"/>
<ellipse cx="667.975" cy="1547.76" rx="27.5616" ry="27.5616" fill="white"/>
<path d="M1031.93 1249.65V1247.88H1044.32V1249.65H1039.12V1264.39H1037.12V1249.65H1031.93ZM1052.92 1247.88V1264.39H1050.92V1249.97H1050.82L1046.79 1252.65V1250.62L1050.92 1247.88H1052.92ZM1063.15 1264.62C1062.48 1264.61 1061.8 1264.48 1061.12 1264.23C1060.44 1263.98 1059.83 1263.57 1059.27 1262.98C1058.71 1262.39 1058.26 1261.59 1057.92 1260.59C1057.58 1259.58 1057.41 1258.31 1057.41 1256.78C1057.41 1255.32 1057.55 1254.02 1057.82 1252.89C1058.1 1251.76 1058.5 1250.8 1059.02 1250.03C1059.54 1249.25 1060.17 1248.66 1060.9 1248.26C1061.65 1247.85 1062.48 1247.65 1063.41 1247.65C1064.34 1247.65 1065.16 1247.84 1065.88 1248.21C1066.61 1248.57 1067.2 1249.08 1067.65 1249.74C1068.11 1250.4 1068.41 1251.15 1068.54 1252.01H1066.57C1066.39 1251.26 1066.04 1250.65 1065.51 1250.16C1064.98 1249.67 1064.28 1249.43 1063.41 1249.43C1062.13 1249.43 1061.12 1249.98 1060.39 1251.09C1059.66 1252.21 1059.29 1253.77 1059.28 1255.78H1059.41C1059.71 1255.32 1060.07 1254.93 1060.48 1254.61C1060.9 1254.28 1061.37 1254.03 1061.87 1253.85C1062.38 1253.68 1062.91 1253.59 1063.48 1253.59C1064.42 1253.59 1065.29 1253.82 1066.07 1254.3C1066.86 1254.76 1067.49 1255.41 1067.96 1256.24C1068.43 1257.06 1068.67 1258.01 1068.67 1259.07C1068.67 1260.09 1068.44 1261.03 1067.98 1261.88C1067.53 1262.72 1066.88 1263.39 1066.06 1263.89C1065.23 1264.39 1064.27 1264.63 1063.15 1264.62ZM1063.15 1262.84C1063.83 1262.84 1064.44 1262.67 1064.98 1262.34C1065.52 1262 1065.95 1261.54 1066.26 1260.97C1066.58 1260.4 1066.73 1259.77 1066.73 1259.07C1066.73 1258.39 1066.58 1257.77 1066.27 1257.21C1065.97 1256.64 1065.56 1256.19 1065.02 1255.86C1064.5 1255.53 1063.9 1255.36 1063.22 1255.36C1062.71 1255.36 1062.23 1255.46 1061.79 1255.67C1061.35 1255.87 1060.96 1256.14 1060.63 1256.49C1060.3 1256.84 1060.04 1257.24 1059.86 1257.69C1059.67 1258.14 1059.57 1258.61 1059.57 1259.1C1059.57 1259.76 1059.73 1260.37 1060.03 1260.94C1060.34 1261.51 1060.77 1261.97 1061.31 1262.32C1061.85 1262.67 1062.47 1262.84 1063.15 1262.84Z" fill="black"/>
<path d="M1110.06 1028.84V1027.06H1122.44V1028.84H1117.25V1043.58H1115.25V1028.84H1110.06ZM1130.4 1043.81C1129.45 1043.81 1128.6 1043.62 1127.84 1043.24C1127.09 1042.87 1126.48 1042.35 1126.02 1041.69C1125.56 1041.04 1125.31 1040.29 1125.27 1039.45H1127.21C1127.28 1040.2 1127.62 1040.82 1128.22 1041.31C1128.83 1041.79 1129.56 1042.03 1130.4 1042.03C1131.08 1042.03 1131.68 1041.87 1132.21 1041.56C1132.74 1041.24 1133.16 1040.8 1133.46 1040.25C1133.76 1039.69 1133.92 1039.06 1133.92 1038.35C1133.92 1037.63 1133.76 1036.99 1133.44 1036.43C1133.13 1035.86 1132.7 1035.41 1132.15 1035.08C1131.6 1034.75 1130.98 1034.59 1130.27 1034.58C1129.77 1034.58 1129.25 1034.65 1128.71 1034.81C1128.18 1034.97 1127.74 1035.17 1127.4 1035.42L1125.53 1035.19L1126.53 1027.06H1135.11V1028.84H1128.21L1127.63 1033.71H1127.72C1128.06 1033.44 1128.49 1033.22 1129 1033.04C1129.51 1032.86 1130.04 1032.77 1130.59 1032.77C1131.6 1032.77 1132.5 1033.02 1133.29 1033.5C1134.09 1033.98 1134.71 1034.63 1135.17 1035.47C1135.62 1036.3 1135.85 1037.25 1135.85 1038.32C1135.85 1039.38 1135.61 1040.32 1135.14 1041.14C1134.67 1041.97 1134.03 1042.62 1133.21 1043.1C1132.38 1043.57 1131.45 1043.81 1130.4 1043.81Z" fill="black"/>
<path d="M1009.83 957.431V955.657H1022.22V957.431H1017.03V972.172H1015.03V957.431H1009.83ZM1025.53 972.172L1032.92 957.56V957.431H1024.4V955.657H1034.98V957.527L1027.63 972.172H1025.53Z" fill="black"/>
<path d="M1091.26 860.962V859.188H1103.65V860.962H1098.46V875.703H1096.46V860.962H1091.26ZM1111.93 875.929C1111.25 875.918 1110.58 875.789 1109.9 875.542C1109.22 875.295 1108.6 874.878 1108.04 874.292C1107.48 873.701 1107.04 872.902 1106.7 871.897C1106.36 870.886 1106.19 869.617 1106.19 868.091C1106.19 866.628 1106.33 865.333 1106.6 864.204C1106.87 863.069 1107.27 862.115 1107.79 861.341C1108.32 860.561 1108.94 859.97 1109.68 859.567C1110.42 859.164 1111.26 858.962 1112.19 858.962C1113.11 858.962 1113.94 859.147 1114.66 859.518C1115.38 859.884 1115.97 860.395 1116.43 861.051C1116.89 861.707 1117.18 862.462 1117.32 863.317H1115.35C1115.17 862.575 1114.81 861.959 1114.29 861.47C1113.76 860.981 1113.06 860.736 1112.19 860.736C1110.91 860.736 1109.9 861.293 1109.17 862.405C1108.43 863.518 1108.07 865.08 1108.06 867.091H1108.19C1108.49 866.634 1108.85 866.244 1109.26 865.921C1109.68 865.593 1110.14 865.341 1110.65 865.163C1111.15 864.986 1111.69 864.897 1112.25 864.897C1113.2 864.897 1114.07 865.134 1114.85 865.607C1115.64 866.075 1116.26 866.722 1116.74 867.55C1117.21 868.373 1117.45 869.316 1117.45 870.381C1117.45 871.402 1117.22 872.338 1116.76 873.187C1116.3 874.031 1115.66 874.703 1114.83 875.203C1114.01 875.698 1113.04 875.94 1111.93 875.929ZM1111.93 874.155C1112.61 874.155 1113.22 873.985 1113.75 873.647C1114.3 873.308 1114.72 872.854 1115.04 872.284C1115.35 871.714 1115.51 871.08 1115.51 870.381C1115.51 869.698 1115.36 869.077 1115.05 868.518C1114.75 867.954 1114.33 867.505 1113.8 867.171C1113.28 866.838 1112.67 866.671 1112 866.671C1111.48 866.671 1111.01 866.773 1110.57 866.978C1110.13 867.177 1109.74 867.451 1109.41 867.8C1109.08 868.15 1108.82 868.55 1108.63 869.002C1108.44 869.448 1108.35 869.918 1108.35 870.413C1108.35 871.069 1108.5 871.682 1108.81 872.252C1109.12 872.822 1109.55 873.281 1110.08 873.631C1110.63 873.98 1111.24 874.155 1111.93 874.155Z" fill="black"/>
<path d="M800.615 870.985V869.211H813.001V870.985H807.808V885.727H805.808V870.985H800.615ZM821.088 885.952C819.98 885.952 819.002 885.756 818.152 885.364C817.308 884.966 816.65 884.42 816.177 883.727C815.703 883.028 815.47 882.232 815.475 881.34C815.47 880.641 815.607 879.996 815.886 879.404C816.166 878.808 816.547 878.31 817.031 877.912C817.521 877.509 818.066 877.254 818.668 877.146V877.05C817.878 876.845 817.249 876.402 816.781 875.719C816.314 875.031 816.082 874.249 816.088 873.372C816.082 872.534 816.295 871.784 816.725 871.122C817.155 870.461 817.746 869.94 818.499 869.558C819.257 869.176 820.12 868.985 821.088 868.985C822.045 868.985 822.899 869.176 823.652 869.558C824.405 869.94 824.996 870.461 825.426 871.122C825.862 871.784 826.082 872.534 826.087 873.372C826.082 874.249 825.843 875.031 825.37 875.719C824.902 876.402 824.281 876.845 823.507 877.05V877.146C824.104 877.254 824.641 877.509 825.12 877.912C825.598 878.31 825.98 878.808 826.265 879.404C826.55 879.996 826.695 880.641 826.7 881.34C826.695 882.232 826.453 883.028 825.974 883.727C825.501 884.42 824.843 884.966 823.999 885.364C823.16 885.756 822.19 885.952 821.088 885.952ZM821.088 884.178C821.835 884.178 822.48 884.057 823.023 883.815C823.566 883.573 823.985 883.232 824.281 882.791C824.577 882.35 824.727 881.834 824.733 881.243C824.727 880.619 824.566 880.068 824.249 879.59C823.932 879.111 823.499 878.735 822.95 878.461C822.407 878.187 821.786 878.05 821.088 878.05C820.383 878.05 819.754 878.187 819.201 878.461C818.652 878.735 818.219 879.111 817.902 879.59C817.59 880.068 817.437 880.619 817.443 881.243C817.437 881.834 817.58 882.35 817.87 882.791C818.166 883.232 818.588 883.573 819.136 883.815C819.684 884.057 820.335 884.178 821.088 884.178ZM821.088 876.34C821.679 876.34 822.203 876.222 822.66 875.985C823.122 875.749 823.485 875.418 823.749 874.993C824.012 874.569 824.147 874.071 824.152 873.501C824.147 872.942 824.015 872.456 823.757 872.042C823.499 871.622 823.141 871.3 822.684 871.074C822.227 870.843 821.695 870.727 821.088 870.727C820.469 870.727 819.929 870.843 819.467 871.074C819.004 871.3 818.647 871.622 818.394 872.042C818.141 872.456 818.018 872.942 818.023 873.501C818.018 874.071 818.144 874.569 818.402 874.993C818.666 875.418 819.029 875.749 819.491 875.985C819.953 876.222 820.485 876.34 821.088 876.34Z" fill="black"/>
<path d="M765.537 788.3V786.526H777.923V788.3H772.73V803.041H770.73V788.3H765.537ZM785.977 786.3C786.655 786.305 787.332 786.434 788.009 786.687C788.687 786.94 789.305 787.359 789.864 787.945C790.423 788.526 790.872 789.319 791.211 790.324C791.549 791.329 791.719 792.59 791.719 794.106C791.719 795.574 791.579 796.877 791.3 798.017C791.025 799.151 790.627 800.108 790.106 800.888C789.59 801.667 788.961 802.259 788.219 802.662C787.482 803.065 786.649 803.267 785.719 803.267C784.794 803.267 783.969 803.084 783.243 802.718C782.523 802.348 781.932 801.834 781.469 801.178C781.012 800.517 780.719 799.751 780.59 798.88H782.558C782.735 799.638 783.088 800.264 783.614 800.759C784.147 801.248 784.848 801.493 785.719 801.493C786.993 801.493 787.999 800.936 788.735 799.823C789.477 798.711 789.848 797.138 789.848 795.106H789.719C789.418 795.558 789.06 795.947 788.646 796.275C788.232 796.603 787.773 796.856 787.267 797.033C786.762 797.211 786.224 797.299 785.655 797.299C784.708 797.299 783.84 797.066 783.05 796.598C782.265 796.125 781.636 795.477 781.163 794.654C780.695 793.826 780.461 792.88 780.461 791.816C780.461 790.805 780.687 789.88 781.139 789.042C781.596 788.198 782.235 787.526 783.058 787.026C783.886 786.526 784.859 786.284 785.977 786.3ZM785.977 788.074C785.3 788.074 784.69 788.243 784.147 788.582C783.609 788.915 783.182 789.367 782.864 789.937C782.553 790.501 782.397 791.128 782.397 791.816C782.397 792.504 782.547 793.13 782.848 793.695C783.155 794.254 783.571 794.7 784.098 795.033C784.63 795.361 785.235 795.525 785.913 795.525C786.423 795.525 786.899 795.426 787.34 795.227C787.781 795.023 788.165 794.746 788.493 794.396C788.827 794.041 789.087 793.641 789.275 793.195C789.464 792.743 789.558 792.273 789.558 791.784C789.558 791.138 789.402 790.534 789.09 789.969C788.784 789.405 788.359 788.948 787.816 788.598C787.278 788.249 786.665 788.074 785.977 788.074Z" fill="black"/>
<path d="M402.225 630.446V628.672H414.611V630.446H409.418V645.188H407.418V630.446H402.225ZM423.214 628.672V645.188H421.214V630.769H421.117L417.085 633.446V631.414L421.214 628.672H423.214ZM433.35 645.413C432.135 645.413 431.1 645.083 430.245 644.421C429.391 643.755 428.737 642.79 428.286 641.526C427.834 640.258 427.608 638.725 427.608 636.93C427.608 635.145 427.834 633.621 428.286 632.357C428.743 631.089 429.399 630.121 430.254 629.454C431.114 628.782 432.146 628.446 433.35 628.446C434.554 628.446 435.584 628.782 436.439 629.454C437.299 630.121 437.955 631.089 438.406 632.357C438.863 633.621 439.092 635.145 439.092 636.93C439.092 638.725 438.866 640.258 438.414 641.526C437.963 642.79 437.31 643.755 436.455 644.421C435.6 645.083 434.565 645.413 433.35 645.413ZM433.35 643.639C434.554 643.639 435.49 643.059 436.156 641.897C436.823 640.736 437.156 639.08 437.156 636.93C437.156 635.5 437.003 634.282 436.697 633.277C436.396 632.271 435.96 631.505 435.39 630.979C434.826 630.452 434.146 630.188 433.35 630.188C432.157 630.188 431.224 630.777 430.552 631.954C429.88 633.126 429.544 634.785 429.544 636.93C429.544 638.36 429.694 639.575 429.995 640.575C430.297 641.575 430.729 642.335 431.294 642.857C431.864 643.378 432.549 643.639 433.35 643.639Z" fill="black"/>
<path d="M665.313 414.966V413.192H677.7V414.966H672.506V429.707H670.506V414.966H665.313ZM686.302 413.192V429.707H684.302V415.288H684.205L680.173 417.966V415.934L684.302 413.192H686.302ZM696.858 413.192V429.707H694.858V415.288H694.761L690.729 417.966V415.934L694.858 413.192H696.858Z" fill="black"/>
<path d="M754.262 552.774V551H766.648V552.774H761.455V567.516H759.455V552.774H754.262ZM775.251 551V567.516H773.251V553.097H773.154L769.122 555.774V553.742L773.251 551H775.251ZM780 567.516V566.064L785.452 560.097C786.092 559.398 786.618 558.79 787.032 558.274C787.446 557.753 787.753 557.263 787.952 556.806C788.156 556.344 788.258 555.86 788.258 555.355C788.258 554.774 788.118 554.272 787.839 553.847C787.565 553.422 787.188 553.094 786.71 552.863C786.231 552.632 785.694 552.516 785.097 552.516C784.463 552.516 783.909 552.648 783.436 552.912C782.968 553.17 782.605 553.532 782.347 554C782.094 554.468 781.968 555.016 781.968 555.645H780.065C780.065 554.678 780.288 553.828 780.734 553.097C781.18 552.366 781.788 551.796 782.557 551.387C783.331 550.979 784.199 550.775 785.161 550.775C786.129 550.775 786.987 550.979 787.734 551.387C788.481 551.796 789.067 552.347 789.492 553.041C789.917 553.734 790.129 554.506 790.129 555.355C790.129 555.962 790.019 556.556 789.798 557.137C789.583 557.712 789.207 558.355 788.669 559.064C788.137 559.769 787.398 560.629 786.452 561.645L782.742 565.612V565.742H790.419V567.516H780Z" fill="black"/>
<path d="M927.148 726.915V725.141H939.535V726.915H934.342V741.656H932.342V726.915H927.148ZM948.137 725.141V741.656H946.137V727.238H946.041L942.009 729.915V727.883L946.137 725.141H948.137ZM958.468 741.882C957.403 741.882 956.454 741.699 955.621 741.334C954.793 740.968 954.134 740.46 953.645 739.81C953.161 739.154 952.898 738.393 952.855 737.527H954.887C954.93 738.06 955.113 738.519 955.435 738.906C955.758 739.288 956.18 739.584 956.701 739.793C957.223 740.003 957.801 740.108 958.435 740.108C959.145 740.108 959.774 739.984 960.322 739.737C960.871 739.49 961.301 739.146 961.613 738.705C961.924 738.264 962.08 737.753 962.08 737.173C962.08 736.565 961.93 736.03 961.629 735.568C961.328 735.1 960.887 734.735 960.306 734.471C959.726 734.208 959.016 734.076 958.177 734.076H956.855V732.302H958.177C958.833 732.302 959.408 732.184 959.903 731.947C960.403 731.711 960.793 731.377 961.072 730.947C961.357 730.517 961.5 730.012 961.5 729.431C961.5 728.872 961.376 728.385 961.129 727.971C960.881 727.557 960.532 727.235 960.08 727.004C959.634 726.773 959.107 726.657 958.5 726.657C957.93 726.657 957.392 726.762 956.887 726.971C956.387 727.176 955.978 727.474 955.661 727.867C955.344 728.254 955.172 728.721 955.145 729.27H953.21C953.242 728.404 953.503 727.646 953.992 726.996C954.481 726.34 955.121 725.829 955.911 725.463C956.707 725.098 957.58 724.915 958.532 724.915C959.553 724.915 960.43 725.122 961.161 725.536C961.892 725.945 962.454 726.485 962.846 727.157C963.239 727.829 963.435 728.555 963.435 729.334C963.435 730.264 963.19 731.057 962.701 731.713C962.217 732.369 961.559 732.823 960.725 733.076V733.205C961.768 733.377 962.583 733.821 963.169 734.536C963.755 735.245 964.048 736.124 964.048 737.173C964.048 738.07 963.803 738.877 963.314 739.592C962.83 740.301 962.169 740.861 961.33 741.269C960.492 741.678 959.537 741.882 958.468 741.882Z" fill="black"/>
<path d="M1056.19 684.317V682.543H1068.57V684.317H1063.38V699.059H1061.38V684.317H1056.19ZM1077.17 682.543V699.059H1075.18V684.64H1075.08L1071.05 687.317V685.285L1075.18 682.543H1077.17ZM1081.54 695.672V694.027L1088.8 682.543H1089.99V685.092H1089.18L1083.7 693.769V693.898H1093.47V695.672H1081.54ZM1089.31 699.059V695.172V694.406V682.543H1091.21V699.059H1089.31Z" fill="black"/>
<path d="M1411.98 865.976V864.201H1424.37V865.976H1419.17V880.717H1417.17V865.976H1411.98ZM1432.97 864.201V880.717H1430.97V866.298H1430.87L1426.84 868.975V866.943L1430.97 864.201H1432.97ZM1442.88 880.943C1441.93 880.943 1441.08 880.754 1440.32 880.378C1439.57 880.002 1438.96 879.486 1438.5 878.83C1438.05 878.174 1437.8 877.427 1437.75 876.588H1439.69C1439.76 877.335 1440.1 877.953 1440.7 878.443C1441.31 878.927 1442.04 879.168 1442.88 879.168C1443.56 879.168 1444.16 879.01 1444.69 878.693C1445.22 878.376 1445.64 877.94 1445.94 877.386C1446.24 876.827 1446.4 876.196 1446.4 875.491C1446.4 874.771 1446.24 874.128 1445.92 873.564C1445.61 872.994 1445.18 872.545 1444.63 872.217C1444.08 871.889 1443.46 871.723 1442.75 871.717C1442.25 871.712 1441.73 871.79 1441.2 871.951C1440.66 872.107 1440.23 872.309 1439.88 872.556L1438.01 872.33L1439.01 864.201H1447.59V865.976H1440.69L1440.11 870.846H1440.2C1440.54 870.578 1440.97 870.354 1441.48 870.177C1441.99 870 1442.52 869.911 1443.07 869.911C1444.09 869.911 1444.99 870.153 1445.78 870.637C1446.57 871.115 1447.2 871.771 1447.65 872.604C1448.1 873.438 1448.33 874.389 1448.33 875.459C1448.33 876.513 1448.1 877.454 1447.62 878.281C1447.16 879.104 1446.51 879.754 1445.69 880.233C1444.86 880.706 1443.93 880.943 1442.88 880.943Z" fill="black"/>
<path d="M2012.07 1160.38V1158.61H2024.46V1160.38H2019.27V1175.12H2017.27V1160.38H2012.07ZM2033.06 1158.61V1175.12H2031.06V1160.71H2030.96L2026.93 1163.38V1161.35L2031.06 1158.61H2033.06Z" fill="black"/>
<path d="M2063.44 1358.33V1356.55H2075.82V1358.33H2070.63V1373.07H2068.63V1358.33H2063.44ZM2078.62 1373.07V1371.61L2084.07 1365.65C2084.71 1364.95 2085.24 1364.34 2085.65 1363.82C2086.07 1363.3 2086.37 1362.81 2086.57 1362.36C2086.78 1361.89 2086.88 1361.41 2086.88 1360.91C2086.88 1360.33 2086.74 1359.82 2086.46 1359.4C2086.18 1358.97 2085.81 1358.65 2085.33 1358.41C2084.85 1358.18 2084.31 1358.07 2083.72 1358.07C2083.08 1358.07 2082.53 1358.2 2082.06 1358.46C2081.59 1358.72 2081.22 1359.08 2080.97 1359.55C2080.71 1360.02 2080.59 1360.57 2080.59 1361.2H2078.68C2078.68 1360.23 2078.91 1359.38 2079.35 1358.65C2079.8 1357.92 2080.41 1357.35 2081.18 1356.94C2081.95 1356.53 2082.82 1356.33 2083.78 1356.33C2084.75 1356.33 2085.61 1356.53 2086.35 1356.94C2087.1 1357.35 2087.69 1357.9 2088.11 1358.59C2088.54 1359.28 2088.75 1360.06 2088.75 1360.91C2088.75 1361.51 2088.64 1362.11 2088.42 1362.69C2088.2 1363.26 2087.83 1363.91 2087.29 1364.62C2086.76 1365.32 2086.02 1366.18 2085.07 1367.2L2081.36 1371.16V1371.29H2089.04V1373.07H2078.62Z" fill="black"/>
<path d="M2292.7 1536.22V1534.45H2305.09V1536.22H2299.89V1550.96H2297.89V1536.22H2292.7ZM2313.46 1551.19C2312.4 1551.19 2311.45 1551.01 2310.62 1550.64C2309.79 1550.28 2309.13 1549.77 2308.64 1549.12C2308.16 1548.46 2307.89 1547.7 2307.85 1546.84H2309.88C2309.93 1547.37 2310.11 1547.83 2310.43 1548.21C2310.75 1548.6 2311.18 1548.89 2311.7 1549.1C2312.22 1549.31 2312.8 1549.42 2313.43 1549.42C2314.14 1549.42 2314.77 1549.29 2315.32 1549.05C2315.87 1548.8 2316.3 1548.45 2316.61 1548.01C2316.92 1547.57 2317.08 1547.06 2317.08 1546.48C2317.08 1545.87 2316.93 1545.34 2316.62 1544.88C2316.32 1544.41 2315.88 1544.04 2315.3 1543.78C2314.72 1543.52 2314.01 1543.38 2313.17 1543.38H2311.85V1541.61H2313.17C2313.83 1541.61 2314.4 1541.49 2314.9 1541.26C2315.4 1541.02 2315.79 1540.69 2316.07 1540.26C2316.35 1539.83 2316.5 1539.32 2316.5 1538.74C2316.5 1538.18 2316.37 1537.69 2316.12 1537.28C2315.88 1536.87 2315.53 1536.54 2315.08 1536.31C2314.63 1536.08 2314.1 1535.97 2313.5 1535.97C2312.93 1535.97 2312.39 1536.07 2311.88 1536.28C2311.38 1536.48 2310.97 1536.78 2310.66 1537.18C2310.34 1537.56 2310.17 1538.03 2310.14 1538.58H2308.21C2308.24 1537.71 2308.5 1536.95 2308.99 1536.3C2309.48 1535.65 2310.12 1535.14 2310.91 1534.77C2311.7 1534.41 2312.58 1534.22 2313.53 1534.22C2314.55 1534.22 2315.43 1534.43 2316.16 1534.84C2316.89 1535.25 2317.45 1535.79 2317.84 1536.47C2318.23 1537.14 2318.43 1537.86 2318.43 1538.64C2318.43 1539.57 2318.19 1540.37 2317.7 1541.02C2317.21 1541.68 2316.55 1542.13 2315.72 1542.38V1542.51C2316.76 1542.69 2317.58 1543.13 2318.16 1543.84C2318.75 1544.55 2319.04 1545.43 2319.04 1546.48C2319.04 1547.38 2318.8 1548.19 2318.31 1548.9C2317.83 1549.61 2317.16 1550.17 2316.33 1550.58C2315.49 1550.99 2314.53 1551.19 2313.46 1551.19Z" fill="black"/>
<path d="M654.037 1541.23V1539.46H666.424V1541.23H661.23V1555.97H659.23V1541.23H654.037ZM667.28 1552.59V1550.94L674.538 1539.46H675.732V1542.01H674.925L669.442 1550.68V1550.81H679.215V1552.59H667.28ZM675.054 1555.97V1552.09V1551.32V1539.46H676.957V1555.97H675.054Z" fill="black"/>
<path d="M1580.33 1229.87L1570.82 1225.27L1571.59 1235.81L1580.33 1229.87ZM1530.31 1233.53L1530.38 1234.45L1572.18 1231.39L1572.11 1230.47L1572.05 1229.56L1530.25 1232.62L1530.31 1233.53Z" fill="#D02423"/>
<path d="M1407.11 1556.79L1416.26 1562.07L1416.26 1551.51L1407.11 1556.79ZM1457.26 1556.79L1457.26 1555.87L1415.34 1555.87L1415.34 1556.79L1415.34 1557.7L1457.26 1557.7L1457.26 1556.79Z" fill="#D02423"/>
<path d="M957.076 1268.91L946.872 1271.64L954.342 1279.11L957.076 1268.91ZM921.617 1304.37L922.264 1305.01L951.901 1275.38L951.254 1274.73L950.607 1274.08L920.97 1303.72L921.617 1304.37Z" fill="#D02423"/>
<path d="M614.219 699.248L621.689 706.718L624.423 696.513L614.219 699.248ZM662.657 712.227L662.894 711.343L622.409 700.495L622.172 701.379L621.936 702.262L662.42 713.11L662.657 712.227Z" fill="#D02423"/>
<path d="M1034.91 757.8L1024.54 755.778L1027.98 765.768L1034.91 757.8ZM987.488 774.098L987.785 774.963L1027.42 761.341L1027.13 760.476L1026.83 759.611L987.19 773.232L987.488 774.098Z" fill="#D02423"/>
<path d="M1211.94 1106.75L1222.14 1104.02L1214.67 1096.55L1211.94 1106.75ZM1247.4 1071.29L1246.75 1070.65L1217.11 1100.28L1217.76 1100.93L1218.41 1101.58L1248.04 1071.94L1247.4 1071.29Z" fill="black"/>
</g>
<defs>
<filter id="filter0_f_1155_233" x="-161.06" y="-78.0604" width="3135.12" height="2176.73" filterUnits="userSpaceOnUse" color-interpolation-filters="sRGB">
<feFlood flood-opacity="0" result="BackgroundImageFix"/>
<feBlend mode="normal" in="SourceGraphic" in2="BackgroundImageFix" result="shape"/>
<feGaussianBlur stdDeviation="196.53" result="effect1_foregroundBlur_1155_233"/>
</filter>
</defs>
</svg>
