<svg width="64" height="64" viewBox="0 0 64 64" fill="none" xmlns="http://www.w3.org/2000/svg">
<path d="M60 5.99375L43.986 5.99381V2.00781C43.986 0.902812 43.091 0.0078125 41.986 0.0078125C40.881 0.0078125 39.986 0.902812 39.986 2.00781V5.99281H23.986V2.00781C23.986 0.902812 23.091 0.0078125 21.986 0.0078125C20.881 0.0078125 19.986 0.902812 19.986 2.00781V5.99281H4C1.791 5.99281 0 7.78381 0 9.99281V59.9928C0 62.2018 1.791 63.9928 4 63.9928H60C62.209 63.9928 64 62.2018 64 59.9928V9.99281C64 7.78475 62.209 5.99375 60 5.99375ZM60 59.9928H4V9.99281H19.986V12.0078C19.986 13.1128 20.881 14.0078 21.986 14.0078C23.091 14.0078 23.986 13.1128 23.986 12.0078V9.99381H39.986V12.0088C39.986 13.1138 40.881 14.0088 41.986 14.0088C43.091 14.0088 43.986 13.1138 43.986 12.0088V9.99381H60V59.9928ZM46 31.9938H50C51.104 31.9938 52 31.0978 52 29.9938V25.9938C52 24.8898 51.104 23.9938 50 23.9938H46C44.896 23.9938 44 24.8898 44 25.9938V29.9938C44 31.0978 44.896 31.9938 46 31.9938ZM46 47.9928H50C51.104 47.9928 52 47.0978 52 45.9928V41.9928C52 40.8888 51.104 39.9928 50 39.9928H46C44.896 39.9928 44 40.8888 44 41.9928V45.9928C44 47.0988 44.896 47.9928 46 47.9928ZM34 39.9928H30C28.896 39.9928 28 40.8888 28 41.9928V45.9928C28 47.0978 28.896 47.9928 30 47.9928H34C35.104 47.9928 36 47.0978 36 45.9928V41.9928C36 40.8898 35.104 39.9928 34 39.9928ZM34 23.9938H30C28.896 23.9938 28 24.8898 28 25.9938V29.9938C28 31.0978 28.896 31.9938 30 31.9938H34C35.104 31.9938 36 31.0978 36 29.9938V25.9938C36 24.8888 35.104 23.9938 34 23.9938ZM18 23.9938H14C12.896 23.9938 12 24.8898 12 25.9938V29.9938C12 31.0978 12.896 31.9938 14 31.9938H18C19.104 31.9938 20 31.0978 20 29.9938V25.9938C20 24.8888 19.104 23.9938 18 23.9938ZM18 39.9928H14C12.896 39.9928 12 40.8888 12 41.9928V45.9928C12 47.0978 12.896 47.9928 14 47.9928H18C19.104 47.9928 20 47.0978 20 45.9928V41.9928C20 40.8898 19.104 39.9928 18 39.9928Z" fill="white"/>
</svg>
