<svg width="54" height="54" viewBox="0 0 54 54" fill="none" xmlns="http://www.w3.org/2000/svg">
<circle cx="27" cy="27" r="27" fill="#D9D9D9"/>
<path d="M23.6668 32.0007L32.3168 27.0007L23.6668 22.0007V32.0007ZM42.9335 18.9507C43.1502 19.734 43.3002 20.784 43.4002 22.1173C43.5168 23.4507 43.5668 24.6007 43.5668 25.6007L43.6668 27.0007C43.6668 30.6507 43.4002 33.334 42.9335 35.0507C42.5168 36.5507 41.5502 37.5173 40.0502 37.934C39.2668 38.1507 37.8335 38.3007 35.6335 38.4007C33.4668 38.5173 31.4835 38.5673 29.6502 38.5673L27.0002 38.6673C20.0168 38.6673 15.6668 38.4007 13.9502 37.934C12.4502 37.5173 11.4835 36.5507 11.0668 35.0507C10.8502 34.2673 10.7002 33.2173 10.6002 31.884C10.4835 30.5507 10.4335 29.4007 10.4335 28.4007L10.3335 27.0007C10.3335 23.3507 10.6002 20.6673 11.0668 18.9507C11.4835 17.4507 12.4502 16.484 13.9502 16.0673C14.7335 15.8507 16.1668 15.7007 18.3668 15.6007C20.5335 15.484 22.5168 15.434 24.3502 15.434L27.0002 15.334C33.9835 15.334 38.3335 15.6007 40.0502 16.0673C41.5502 16.484 42.5168 17.4507 42.9335 18.9507Z" fill="black"/>
</svg>
