<svg width="64" height="65" viewBox="0 0 64 65" fill="none" xmlns="http://www.w3.org/2000/svg">
<g clip-path="url(#clip0_1499_1331)">
<path fill-rule="evenodd" clip-rule="evenodd" d="M23.466 2.63333C23.466 2.06754 23.6908 1.52492 24.0908 1.12484C24.4909 0.724761 25.0335 0.5 25.5993 0.5L38.3993 0.5C38.9651 0.5 39.5078 0.724761 39.9078 1.12484C40.3079 1.52492 40.5327 2.06754 40.5327 2.63333C40.5327 3.19913 40.3079 3.74175 39.9078 4.14183C39.5078 4.54191 38.9651 4.76667 38.3993 4.76667H34.1327V9.54533C38.6849 9.89341 43.0757 11.3844 46.8985 13.8803C46.9867 13.7646 47.0807 13.6535 47.1801 13.5475L51.4468 9.2808C51.6945 9.03314 51.9885 8.83669 52.312 8.70266C52.6356 8.56863 52.9824 8.49965 53.3327 8.49965C53.6829 8.49965 54.0297 8.56863 54.3533 8.70266C54.6769 8.83669 54.9709 9.03314 55.2185 9.2808C55.4662 9.52846 55.6626 9.82246 55.7967 10.146C55.9307 10.4696 55.9997 10.8164 55.9997 11.1667C55.9997 11.5169 55.9307 11.8637 55.7967 12.1873C55.6626 12.5109 55.4662 12.8049 55.2185 13.0525L51.0585 17.2125C55.5271 21.5692 58.3685 27.3251 59.1096 33.5219C59.8507 39.7186 58.4468 45.9823 55.1316 51.2698C51.8165 56.5574 46.7901 60.5499 40.8894 62.5824C34.9888 64.615 28.5699 64.5649 22.7017 62.4407C16.8334 60.3165 11.8699 56.2462 8.63748 50.9076C5.4051 45.569 4.09896 39.2842 4.93654 33.0998C5.77411 26.9153 8.70486 21.2044 13.2408 16.9179C17.7767 12.6313 23.6441 10.0279 29.866 9.54107V4.76667H25.5993C25.0335 4.76667 24.4909 4.54191 24.0908 4.14183C23.6908 3.74175 23.466 3.19913 23.466 2.63333ZM8.95933 36.7667C8.95933 30.6561 11.3868 24.7958 15.7076 20.4749C20.0284 16.1541 25.8887 13.7267 31.9993 13.7267C38.1099 13.7267 43.9702 16.1541 48.2911 20.4749C52.6119 24.7958 55.0393 30.6561 55.0393 36.7667C55.0393 42.8773 52.6119 48.7376 48.2911 53.0584C43.9702 57.3792 38.1099 59.8067 31.9993 59.8067C25.8887 59.8067 20.0284 57.3792 15.7076 53.0584C11.3868 48.7376 8.95933 42.8773 8.95933 36.7667ZM31.9993 36.7667V17.9933C28.9119 17.993 25.872 18.7541 23.1489 20.2092C20.4259 21.6644 18.1038 23.7687 16.3883 26.3357C14.6728 28.9027 13.6169 31.8532 13.3142 34.9257C13.0114 37.9983 13.4711 41.0981 14.6526 43.9506C15.8341 46.8031 17.7008 49.3201 20.0875 51.2787C22.4741 53.2374 25.307 54.5772 28.3352 55.1794C31.3633 55.7816 34.4933 55.6277 37.4477 54.7313C40.4022 53.8349 43.09 52.2236 45.2729 50.0403L31.9993 36.7667Z" fill="white"/>
</g>
<defs>
<clipPath id="clip0_1499_1331">
<rect width="64" height="64" fill="white" transform="translate(0 0.5)"/>
</clipPath>
</defs>
</svg>
