<svg width="64" height="65" viewBox="0 0 64 65" fill="none" xmlns="http://www.w3.org/2000/svg">
<path d="M24.0007 56.4993L20.2007 52.766L24.4673 48.4993H24.0007C18.8007 48.4993 14.39 46.6887 10.7687 43.0673C7.14732 39.446 5.33576 35.0345 5.33399 29.8327C5.33221 24.6309 7.14376 20.2202 10.7687 16.6007C14.3935 12.9811 18.8042 11.1696 24.0007 11.166H40.0007C45.2007 11.166 49.6122 12.9776 53.2353 16.6007C56.8584 20.2238 58.6691 24.6345 58.6673 29.8327C58.6655 35.0309 56.8549 39.4425 53.2353 43.0673C49.6158 46.6922 45.2042 48.5029 40.0007 48.4993V43.166C43.6895 43.166 46.8344 41.8656 49.4353 39.2647C52.0362 36.6638 53.3358 33.5198 53.334 29.8327C53.3322 26.1456 52.0318 23.0016 49.4327 20.4007C46.8335 17.7998 43.6895 16.4993 40.0007 16.4993H24.0007C20.3118 16.4993 17.1678 17.7998 14.5687 20.4007C11.9695 23.0016 10.6691 26.1456 10.6673 29.8327C10.6655 33.5198 11.966 36.6869 14.5687 39.334C17.1713 41.9811 20.3153 43.4362 24.0007 43.6993H25.0673L20.2673 38.8993L24.0007 35.166L34.6673 45.8327L24.0007 56.4993Z" fill="white"/>
</svg>
