<svg width="64" height="65" viewBox="0 0 64 65" fill="none" xmlns="http://www.w3.org/2000/svg">
<path d="M11.5758 3.125C7.57578 3.125 3.57078 6.125 3.57078 12.125L11.5758 28.125L19.5758 12.125C19.5758 6.125 15.5758 3.125 11.5758 3.125ZM46.8633 8C46.0008 8.03625 45.1633 8.2 44.4633 8.35L44.9383 10.55C45.6383 10.3938 46.3633 10.295 46.9758 10.25L46.8633 8ZM11.5758 8.125C13.7883 8.125 15.5758 9.91625 15.5758 12.125C15.5758 14.3375 13.7883 16.125 11.5758 16.125C9.36703 16.125 7.57578 14.3375 7.57578 12.125C7.57578 9.91625 9.36703 8.125 11.5758 8.125ZM49.3508 8.15L48.9758 10.3625C49.5883 10.4913 50.2008 10.6525 50.7383 10.975L51.8258 9C51.0633 8.59375 50.2133 8.22875 49.3508 8.15ZM42.1633 8.9875C41.4008 9.285 40.6383 9.55125 39.9883 9.8125L40.8758 11.875C41.5633 11.5825 42.2883 11.3275 42.9008 11.1125L42.1633 8.9875ZM53.8758 10.6625L52.1633 12.125C52.6133 12.64 52.9633 13.275 53.2383 13.7875L55.2508 12.775C54.8258 11.9562 54.4508 11.3363 53.8758 10.6625ZM37.9008 10.775C37.1383 11.1637 36.5133 11.51 35.8383 11.85L36.9383 13.825C37.5883 13.45 38.3008 13.0875 38.8758 12.8L37.9008 10.775ZM33.8633 13.0125C33.2008 13.4 32.5508 13.7875 31.9133 14.2125L33.1383 16.0875C33.7508 15.6875 34.3883 15.3125 35.0133 14.9375L33.8633 13.0125ZM56.0258 15.25C55.2883 15.375 54.5383 15.4625 53.8008 15.55C53.8508 16.175 53.8133 16.85 53.6883 17.375L55.8758 17.8875C56.0008 16.9875 56.1133 16.0625 56.0258 15.25ZM30.0133 15.4625C29.3883 15.8875 28.7758 16.325 28.1508 16.75L29.4508 18.5875C30.0508 18.15 30.6633 17.7375 31.2758 17.3125L30.0133 15.4625ZM26.3133 18.1C25.6883 18.55 25.0383 19.05 24.5008 19.4625L25.8633 21.25C26.5508 20.75 27.0258 20.375 27.6508 19.9125L26.3133 18.1ZM52.9383 19.1C52.5633 19.675 52.1258 20.25 51.6883 20.6875L53.3258 22.25C53.8633 21.6125 54.4383 20.9625 54.8383 20.3125L52.9383 19.1ZM22.7133 20.8625C22.1008 21.3375 21.4883 21.825 20.9508 22.275L22.3758 24.0125C22.9633 23.525 23.5633 23.025 24.1133 22.625L22.7133 20.8625ZM50.1383 22.125C49.5633 22.5875 48.9633 23.0375 48.4133 23.4125L49.7008 25.2625C50.3633 24.8125 51.0133 24.325 51.5758 23.875L50.1383 22.125ZM19.2133 23.7375C18.6258 24.2125 18.0633 24.7125 17.4883 25.2L18.9508 26.9125C19.5133 26.425 20.0758 25.9375 20.6508 25.4625L19.2133 23.7375ZM46.5758 24.6125C45.9383 24.9875 45.2758 25.375 44.6758 25.7L45.7508 27.6875C46.4258 27.275 47.1883 26.9125 47.7508 26.5375L46.5758 24.6125ZM15.7758 26.6875C15.2133 27.1875 14.6633 27.6875 14.1008 28.2L15.6133 29.875C16.1633 29.375 16.7258 28.875 17.2758 28.375L15.7758 26.6875ZM42.7133 26.7375C42.0508 27.0625 41.3883 27.4 40.7258 27.725L41.6883 29.75C42.4633 29.375 43.0383 29.0625 43.7383 28.7375L42.7133 26.7375ZM38.7133 28.6625C38.0258 28.975 37.3633 29.275 36.6633 29.5625L37.5758 31.625C38.2633 31.325 38.9508 31.0125 39.6383 30.7L38.7133 28.6625ZM12.4508 29.75C11.8133 30.3125 11.3695 30.75 10.7883 31.3125L12.3758 32.9375C12.9633 32.375 13.4383 31.8875 13.9883 31.4125L12.4508 29.75ZM34.6133 30.475C33.9258 30.7625 33.2383 31.0625 32.5508 31.35L33.4258 33.4375C34.1258 33.15 34.8133 32.85 35.5008 32.55L34.6133 30.475ZM30.4758 32.225C29.7883 32.525 29.1008 32.825 28.4008 33.1L29.2758 35.1875C29.9633 34.9 30.6633 34.6 31.3508 34.3125L30.4758 32.225ZM53.5758 33.125C49.5758 33.125 45.5758 36.125 45.5758 42.125L53.5758 58.125L61.5758 42.125C61.5758 36.125 57.5758 33.125 53.5758 33.125ZM26.3258 33.975C25.6133 34.3 24.8633 34.6 24.2508 34.8625L25.1383 36.9375C25.8758 36.625 26.5758 36.325 27.2008 36.05L26.3258 33.975ZM22.1758 35.75C21.5008 36.0625 20.7133 36.4125 20.1133 36.6875L21.0383 38.7375C21.7758 38.4125 22.4258 38.0875 23.0758 37.8125L22.1758 35.75ZM18.0508 37.625C17.3508 37.9625 16.6258 38.3125 16.0008 38.625L17.0133 40.6375C17.6883 40.2875 18.3883 39.9625 19.0008 39.6625L18.0508 37.625ZM53.5758 38.125C55.7883 38.125 57.5758 39.9125 57.5758 42.125C57.5758 44.3375 55.7883 46.125 53.5758 46.125C51.3633 46.125 49.5758 44.3375 49.5758 42.125C49.5758 39.9125 51.3633 38.125 53.5758 38.125ZM13.9758 39.6625C13.3133 40.025 12.6508 40.4 11.9758 40.7875L13.1008 42.7375C13.7383 42.3625 14.3883 42.0125 15.0383 41.6625L13.9758 39.6625ZM10.0133 42C9.31203 42.4 8.63453 42.9375 8.05078 43.325L9.41328 45.125C10.0345 44.675 10.7033 44.2125 11.2383 43.8875L10.0133 42ZM6.27578 44.825C5.67578 45.375 5.08453 46.0125 4.62578 46.55L6.33828 48.0125C6.81953 47.425 7.23828 46.9875 7.80078 46.4875L6.27578 44.825ZM33.5008 44.9875L33.7008 47.225C34.3508 47.1125 35.0008 47.1875 35.6508 47.2875L36.0383 45.075C35.2133 44.95 34.3383 44.8625 33.5008 44.9875ZM28.8508 46.2375L29.7008 48.325C30.3508 48.0375 31.0258 47.8125 31.7133 47.6C31.4758 46.8875 31.3008 46.1625 31.1133 45.4375C30.3258 45.6625 29.5383 45.9625 28.8508 46.2375ZM38.5383 46.125L37.2633 47.975C37.7883 48.3625 38.3008 48.775 38.7133 49.2875L40.4133 47.8125C39.7758 47.1625 39.2883 46.55 38.5383 46.125ZM26.7258 47.25C26.0383 47.6 25.3758 48 24.7133 48.3875L25.8508 50.325C26.5008 49.975 27.1383 49.5625 27.7758 49.225L26.7258 47.25ZM3.25203 48.625C2.87453 49.4375 2.56828 50.3125 2.42578 51.0875L4.63828 51.475C4.77328 50.7625 4.96703 50.25 5.25078 49.6375C4.56453 49.3375 3.90953 48.975 3.25203 48.625ZM22.7633 49.6C22.1258 50.0125 21.5008 50.425 20.8758 50.85L22.1258 52.725C22.7508 52.3125 23.3633 51.8875 23.9883 51.475L22.7633 49.6ZM41.8508 49.75L39.9633 50.975C40.3633 51.575 40.7508 52.2 41.1133 52.8375L43.0633 51.7125C42.6258 51.0125 42.3133 50.3875 41.8508 49.75ZM19.0133 52.125C18.3883 52.5375 17.7633 52.9375 17.1508 53.375L18.4008 55.25C19.0008 54.8125 19.6383 54.4 20.2758 53.975L19.0133 52.125ZM4.66328 53.3125C3.93953 53.4625 3.20953 53.5875 2.48203 53.725C2.61328 54.6 2.96453 55.45 3.28203 56.125L5.31328 55.15C5.04203 54.525 4.78453 53.875 4.66328 53.3125ZM44.1758 53.6625L42.2258 54.7875C42.6133 55.4625 43.0633 56.1875 43.4258 56.7625L45.3133 55.55C44.8883 54.8875 44.5258 54.2625 44.1758 53.6625ZM15.3008 54.6C14.6758 54.9875 14.0633 55.3625 13.4133 55.725L14.5258 57.6875C15.1883 57.3 15.8508 56.9125 16.4883 56.5L15.3008 54.6ZM6.38828 56.6375L4.85078 58.2875C5.54578 58.95 6.40328 59.3875 7.33828 59.5875L7.83828 57.4C7.28328 57.2875 6.76453 57.0125 6.38828 56.6375ZM11.5133 56.675C10.887 56.9625 10.237 57.1875 9.56328 57.325L10.0758 59.525C10.8783 59.3625 11.6333 59.0625 12.3883 58.75L11.5133 56.675ZM46.5508 57.275L44.8133 58.6875C45.3508 59.35 46.0133 59.9875 46.5883 60.4375L47.9758 58.6625C47.4258 58.2375 46.9508 57.725 46.5508 57.275ZM49.5633 59.4625L49.0008 61.65C49.9883 61.85 50.7258 61.9125 51.6508 61.8125L51.3758 59.575C50.7633 59.675 50.1633 59.6125 49.5633 59.4625Z" fill="white"/>
</svg>
